<?xml version="1.0" encoding="utf-8"?><svg xmlns="http://www.w3.org/2000/svg" xmlns:xlink="http://www.w3.org/1999/xlink"><symbol viewBox="0 0 100 100" id="cloud1" xmlns="http://www.w3.org/2000/svg"><path d="M79.91 49.94A29.8 29.8 0 0149.32 80a29.65 29.65 0 01-29.38-30.57A29.64 29.64 0 0150.53 20a29.79 29.79 0 0129.38 29.94zm-31.34 2.94V38.66c0-.5-.12-.66-.63-.65h-7.21A12 12 0 1041.29 62c.35 0 .43-.14.43-.46v-2.57c0-1.19 0-1.19-1.16-1.2a7.73 7.73 0 01-.66-15.43c1.19-.1 2.4 0 3.6-.06 1 0 .86-.11.86.86v24c0 .5.12.67.64.65a27.86 27.86 0 012.89 0c.56 0 .72-.12.72-.7-.05-4.76-.04-9.49-.04-14.21zm2.66-5.79v14.23c0 .5.13.64.63.63h7.47A12 12 0 1058.56 38c-.36 0-.49.12-.48.49v2.25c0 1.43 0 1.43 1.4 1.49a7.74 7.74 0 01-.33 15.48h-3.09c-.49 0-.66-.1-.65-.63v-6.56-17.65c0-.46-.06-.68-.61-.66a25.33 25.33 0 01-2.89 0c-.63 0-.73.2-.72.76.05 4.72.04 9.42.04 14.12z" fill="#25a206"/></symbol><symbol viewBox="0 0 100 100" id="cloud10" xmlns="http://www.w3.org/2000/svg"><path d="M43.7 55.46h-7.16c-1 0-1.39-.45-1.23-1.45l3-18.84q1-6.24 2-12.5a1.82 1.82 0 012-1.73H54.6a17.72 17.72 0 015 .68 7.31 7.31 0 015.4 8.56v.69c0 .23-.15.62-.22.93a14 14 0 01-3 6.52c-2.37 2.74-5.5 3.81-9 4.12-1.76.16-3.52.09-5.28.1a1.76 1.76 0 00-2 1.61c-.25 1.42-.45 2.85-.67 4.27z" fill="#012c8a"/><path d="M43.7 55.46l1.14-7c.22-1.42.42-2.85.67-4.27a1.76 1.76 0 012-1.61c1.76 0 3.52.06 5.28-.1 3.48-.31 6.61-1.38 9-4.12a14 14 0 003-6.52c.07-.31.14-.62.22-.93a5.43 5.43 0 013.1 4.66 12.74 12.74 0 01-3.51 10.37 10.65 10.65 0 01-6.6 2.91 24.65 24.65 0 01-3.1.13 1.54 1.54 0 00-1.71 1.47c-.43 2.64-.83 5.27-1.27 7.91a1.49 1.49 0 01-1.7 1.4h-5.89c-.87 0-1.21-.41-1.08-1.29z" fill="#019ae0"/><path d="M25.49 64.06c.79 0 1.76-.06 2.72.06 2.48.3 3.56 1.74 3.12 4.22a4.75 4.75 0 01-5.06 4.36h-1.55a.72.72 0 00-.83.71c-.14 1-.3 1.9-.43 2.85a.75.75 0 01-.85.75h-1.92c-.44 0-.59-.2-.51-.65q.9-5.62 1.78-11.24c.15-1 .24-1.06 1.22-1.06zm-.22 6.06c.25 0 .5 0 .74-.06a1.83 1.83 0 001.91-1.93 1.18 1.18 0 00-1.08-1.39c-.45-.07-.92 0-1.38-.08s-.54.18-.59.53c-.1.7-.22 1.4-.33 2.1s-.12.83.73.83z" fill="#012c8a"/><path d="M58.69 64.06a27 27 0 012.92.08 3.09 3.09 0 013 3.66c-.2 2.57-1.53 4.25-3.8 4.74a8.34 8.34 0 01-1.32.15H58c-.49 0-.79.14-.89.75-.16.94-.33 1.89-.45 2.84-.06.53-.28.76-.82.72s-1.18 0-1.77 0-.76-.1-.66-.75c.4-2.55.81-5.09 1.21-7.64.2-1.25.39-2.5.59-3.75.1-.63.28-.79.91-.8zm-.22 6.06l.8-.06a1.82 1.82 0 001.84-2A1.14 1.14 0 0060 66.73c-.44-.06-.89 0-1.33-.07s-.52.14-.57.49c-.1.72-.22 1.44-.33 2.16s-.13.81.7.81z" fill="#019ae0"/><path d="M38.5 69.2c.28-.83.28-.83 1.2-.82h1.39c.41 0 .61.15.54.58-.39 2.5-.79 5-1.18 7.49a.61.61 0 01-.62.56h-2c-.68 0-.37-.54-.4-.9-.19 0-.27.16-.38.24A4.42 4.42 0 0133 77a3.18 3.18 0 01-2.24-2.86A5.16 5.16 0 0137 68.3a2.34 2.34 0 011.5.9zm-2.18 1.35a2.5 2.5 0 00-2.56 2.52 1.62 1.62 0 001.37 1.71 2.48 2.48 0 003-2 1.75 1.75 0 00-1.81-2.23z" fill="#012c8a"/><path d="M70.61 76.13a5.08 5.08 0 01-2.84 1.08 3.5 3.5 0 01-3.86-3.68 5.28 5.28 0 014-5.25 5.2 5.2 0 012.54.08 2 2 0 011.21.86c.19-.29.07-.65.37-.79a2.09 2.09 0 01.79-.06h1.44c.44 0 .62.17.54.63q-.58 3.63-1.14 7.28a.75.75 0 01-.87.73h-1.55c-.55 0-.66-.07-.63-.68a1.42 1.42 0 000-.2h.06zm-1.12-5.58A2.5 2.5 0 0067 73.27a1.58 1.58 0 001.19 1.47 2.52 2.52 0 003.17-1.93 1.77 1.77 0 00-1.87-2.26z" fill="#019ae0"/><path d="M47.24 73.09a.88.88 0 00.38-.42c.67-1 1.31-2 2-2.91 1.18-1.69.53-1.34 2.63-1.38a8 8 0 01.85 0c.39 0 .53.28.35.63a2.11 2.11 0 01-.21.31c-2.34 3.38-4.68 6.75-7 10.14a1 1 0 01-1 .52h-1.71c-.22 0-.47.1-.62-.18s.06-.43.19-.62c.62-.88 1.24-1.78 1.88-2.65a.77.77 0 00.13-.82c-.75-2.17-1.48-4.34-2.22-6.51-.22-.66-.12-.81.56-.81h1.6a.88.88 0 011 .75c.37 1.3.78 2.6 1.19 3.95z" fill="#012c8a"/><path d="M78.58 64.06h.7c.71 0 .79.1.68.83q-.9 5.65-1.78 11.29c-.11.68-.26.82-.94.82h-1.39c-.63 0-.73-.11-.63-.72.32-2.1.66-4.19 1-6.28l.78-5.17c.11-.74.13-.77.87-.77z" fill="#019ae0"/><path d="M25.27 70.12c-.85 0-.85 0-.73-.83s.23-1.4.33-2.1c.05-.35.21-.55.59-.53s.93 0 1.38.08a1.18 1.18 0 011.08 1.39A1.83 1.83 0 0126 70.06c-.23.03-.48.04-.73.06zM58.47 70.12c-.83 0-.84 0-.71-.81s.23-1.44.33-2.16c0-.35.22-.51.57-.49s.89 0 1.33.07A1.14 1.14 0 0161.11 68a1.82 1.82 0 01-1.84 2zM36.32 70.55a1.75 1.75 0 011.8 2.25 2.48 2.48 0 01-3 2 1.62 1.62 0 01-1.37-1.71 2.5 2.5 0 012.57-2.54zM69.49 70.55a1.77 1.77 0 011.85 2.26 2.52 2.52 0 01-3.17 1.93A1.58 1.58 0 0167 73.27a2.5 2.5 0 012.49-2.72zM70.61 76.13h-.06z" fill="#fdfefe"/></symbol><symbol viewBox="0 0 100 100" id="cloud11" xmlns="http://www.w3.org/2000/svg"><path d="M80 50.68c-.25 2.36-2.1 5-4.61 5a1.8 1.8 0 00-1.25.89 22.66 22.66 0 01-7.34 7.27 1.35 1.35 0 00-.7 1.07 5.77 5.77 0 01-7.28 4.54.84.84 0 01-.73-1v-9.23a.8.8 0 01.68-.9 5.74 5.74 0 016.47 2.39c.33.5.54.57 1 .21a22.1 22.1 0 005-5c.33-.46.37-.68-.17-1-3.67-2.47-3.63-7.24.08-9.74.47-.31.42-.51.14-.91a22 22 0 00-5.15-5.14c-.44-.31-.62-.21-.91.21a5.76 5.76 0 01-6.36 2.49c-.58-.15-.85-.38-.84-1v-9c0-.66.24-.89.83-1.06a5.78 5.78 0 017.18 4.59 1.24 1.24 0 00.63 1 22.52 22.52 0 017.46 7.39 1.66 1.66 0 001.2.81A6 6 0 0180 49.93a3.78 3.78 0 010 .75z" fill="#056ec3"/><path d="M55.43 49.88v28.8c0 1.12 0 1.12-1 .91Q37.71 76.2 21 72.85c-.72-.15-.89-.42-.89-1.13v-43.7c0-.7.17-1 .9-1.12q16.83-3.37 33.65-6.81c.92-.19.77.3.77.81v28.98zM43.4 43v-4.15a.63.63 0 00-.56-.7 12.06 12.06 0 00-8.31.29 6.28 6.28 0 00-3.72 7.72A7.18 7.18 0 0035 50.38c1.23.58 2.54 1 3.76 1.64a2.4 2.4 0 011.56 2.71 2.54 2.54 0 01-2.42 2 8.86 8.86 0 01-4.24-.44c-.79-.26-1.55-.63-2.39-1v4.25a.62.62 0 00.49.67c3.23 1 6.47 1.29 9.64-.12a6.59 6.59 0 002.52-10.25 10.36 10.36 0 00-4.21-2.66 11.8 11.8 0 01-3.42-1.71 1.91 1.91 0 01.35-3.26 3.46 3.46 0 011.22-.37A9.51 9.51 0 0143.4 43z" fill="#016dc3"/><path d="M43.4 43a9.51 9.51 0 00-5.52-1.14 3.46 3.46 0 00-1.22.37 1.91 1.91 0 00-.35 3.26 11.8 11.8 0 003.42 1.71 10.36 10.36 0 014.21 2.66 6.59 6.59 0 01-2.52 10.25c-3.17 1.41-6.41 1.15-9.64.12a.62.62 0 01-.49-.67v-4.25c.84.34 1.6.71 2.39 1a8.86 8.86 0 004.24.44 2.54 2.54 0 002.42-2A2.4 2.4 0 0038.79 52c-1.22-.59-2.53-1-3.79-1.62a7.18 7.18 0 01-4.21-4.2 6.28 6.28 0 013.72-7.72 12.06 12.06 0 018.31-.29.63.63 0 01.56.7c0 1.33.02 2.67.02 4.13z" fill="#fdfdfe"/></symbol><symbol viewBox="0 0 100 100" id="cloud12" xmlns="http://www.w3.org/2000/svg"><path d="M79 39.78v10.43a29 29 0 01-53.84 14.66 27.58 27.58 0 01-3.94-18C22.6 36 28.39 28.17 38.33 23.5A26.66 26.66 0 0149.69 21H71.6a7.27 7.27 0 017.4 7.47v11.31zM36.71 50.56c0 2.26-.05 4 0 5.68a4.25 4.25 0 003.57 4.2 25.13 25.13 0 003.88.14c.55 0 .7-.17.7-.71v-9c0-.53-.15-.72-.71-.7h-3.8c-.32 0-.66 0-.65-.47a33.62 33.62 0 01.1-4.14 10.29 10.29 0 0110.69-8.66 10.12 10.12 0 018.74 5.48c1.24 2.21 1.23 4.61 1.23 7 0 .65-.21.8-.81.78h-3.71c-.42 0-.65 0-.64.55v9.28c0 .49.22.59.65.58h2c.64 0 .82.26.72.88a3.88 3.88 0 01-3.44 3.27c-1.38.11-2.77.07-4.15.09-.42 0-.89 0-.92.55s.39.71.88.71h3.81a5.27 5.27 0 005-4.94.83.83 0 01.61-.9 3.85 3.85 0 002.65-3.35c.18-3.76.15-7.54 0-11.3a6.26 6.26 0 00-.11-1.16 13.26 13.26 0 00-18.69-9.23 12.62 12.62 0 00-7.4 9.81 38.66 38.66 0 00-.2 5.56z" fill="#26c06e"/></symbol><symbol viewBox="0 0 100 100" id="cloud13" xmlns="http://www.w3.org/2000/svg"><defs><mask id="ea" x="20.12" y="36.78" width="60" height="24.88" maskUnits="userSpaceOnUse"><path d="M20.13 36.78h60v24.88h-60z" fill="#fff"/></mask></defs><path fill="#6772e5" d="M0 0h100v100H0z"/><g mask="url(#ea)"><path d="M26.39 48c-1.29-.48-2-.85-2-1.43s.41-.78 1.14-.78a8.76 8.76 0 013.63 1l.53-3.28a10.35 10.35 0 00-4.38-.93 5.65 5.65 0 00-3.61 1.11 4 4 0 00-1.4 3.19c0 2.41 1.47 3.44 3.86 4.3 1.54.55 2.06.94 2.06 1.54s-.5.93-1.4.93a9.78 9.78 0 01-4.17-1.26l-.53 3.31a10.87 10.87 0 004.93 1.19 6 6 0 003.77-1.08 4.12 4.12 0 001.51-3.42c0-2.46-1.51-3.49-3.94-4.36zM39 46l.53-3.26H36.7v-4l-3.77.62-.54 3.33-1.33.31-.5 3h1.82v6.39A4.27 4.27 0 0033.67 56a5.05 5.05 0 003.24.87 8.34 8.34 0 002.31-.32v-3.5a5.55 5.55 0 01-1.28.2c-.87 0-1.24-.44-1.24-1.45V46zm8.42-3.45a2.62 2.62 0 00-2.62 1.82l-.27-1.63h-3.86v13.82h4.39v-8.94a2.82 2.82 0 012.39-.92 4.47 4.47 0 01.78 0v-4a3.65 3.65 0 00-.83-.11zm4.11-1.17a2.32 2.32 0 10-2.32-2.32 2.32 2.32 0 002.32 2.32zm-2.22 1.36h4.39v13.82h-4.41zM66.2 44a3.85 3.85 0 00-3.2-1.48 4.61 4.61 0 00-3.44 1.64l-.23-1.38h-3.9v18.88l4.4-.72v-4.43a6.76 6.76 0 002 .32 5.26 5.26 0 003.93-1.63c1.19-1.3 1.79-3.3 1.79-5.94A8.51 8.51 0 0066.2 44zm-3.65 8.5a1.71 1.71 0 01-1.54 1 2.53 2.53 0 01-1.18-.27v-6.5a2.38 2.38 0 011.66-.87c1.12 0 1.67 1.21 1.67 3.56a6.32 6.32 0 01-.61 3.1zm17.57-3a8.35 8.35 0 00-1.41-5.16 5 5 0 00-4.22-1.87c-3.74 0-6.06 2.76-6.06 7.19 0 2.48.62 4.34 1.85 5.52A6.46 6.46 0 0075 56.83a9 9 0 004.71-1.17l-.48-3a7.84 7.84 0 01-3.75.9 2.67 2.67 0 01-1.87-.56 2.74 2.74 0 01-.82-1.93h7.28c0-.21.05-1.2.05-1.52zm-7.36-1.17c.12-2 .65-2.89 1.66-2.89s1.51.94 1.58 2.89z" fill="#fff"/></g></symbol><symbol viewBox="0 0 100 100" id="cloud14" xmlns="http://www.w3.org/2000/svg"><path d="M75.18 25.25a7 7 0 012.54 1.08A5.41 5.41 0 0180 30.76v18.77A5.52 5.52 0 0174.47 55h-17c-.61 0-.6 0-.37.58l2 4.91c0 .08.06.17.12.36-.3-.15-.51-.25-.71-.37q-4.73-2.62-9.44-5.26a1.69 1.69 0 00-.88-.22H25.93a5.72 5.72 0 01-5.86-4.69.6.6 0 00-.09-.15V30c.17-.11.13-.29.17-.44a5.55 5.55 0 013-3.74c.49-.25 1.05-.32 1.55-.54zm-46 19.07c-.13-.53-.23-.93-.32-1.32-.9-3.88-1.57-7.79-2.17-11.72a1.75 1.75 0 00-.93-1.52 2.29 2.29 0 00-2.34.18 1.92 1.92 0 00-.78 2c.19 1.28.4 2.55.61 3.83a120.33 120.33 0 002.57 12.18 13.55 13.55 0 001.27 3.44 1.36 1.36 0 002.29.44A7.18 7.18 0 0030.92 50a38.83 38.83 0 002.42-4.55L35.6 41c0 .06.07.08.08.11l.09.28a28.41 28.41 0 003.52 7.8 12.37 12.37 0 002.13 2.49 1.79 1.79 0 003.13-1.07 9.38 9.38 0 000-1.91 56.06 56.06 0 01.92-9.32 28.17 28.17 0 012.29-8 2 2 0 00-.76-2.45 2 2 0 00-3.11.78 29.22 29.22 0 00-2.55 8.62c-.26 1.5-.44 3-.63 4.66-.12-.27-.19-.41-.24-.56a47.44 47.44 0 01-1.89-6.74 8 8 0 00-.5-2 1.73 1.73 0 00-2.82-.55 3.75 3.75 0 00-.77 1.07L31.45 40c-.73 1.42-1.45 2.8-2.25 4.32zm32.33-5.25a10.18 10.18 0 00-.61-3.75 6.11 6.11 0 00-10.58-1.83 12.67 12.67 0 00-2.65 10.64 6.54 6.54 0 002.68 4.42 6.15 6.15 0 008.38-1.37 12.82 12.82 0 002.8-8.11zm15.36.26a10.24 10.24 0 00-.14-2.25 7.2 7.2 0 00-2.24-4.42 6 6 0 00-8.41.43 12.33 12.33 0 00-3 11.07 6.63 6.63 0 002.38 4.18 6.15 6.15 0 008.76-1.27 13 13 0 002.67-7.74z" fill="#9b5c8f"/><path d="M79.62 73.76H75c-.16 0-.21 0-.21-.21v-8.38c0-.18.07-.2.22-.2h4.59v1.92h-2.25c-.13 0-.17 0-.17.17v1.24c0 .16 0 .2.2.2h1.68c.16 0 .22 0 .22.21v1.42c0 .16 0 .2-.2.2h-1.7c-.17 0-.21 0-.2.2v1.24c0 .14 0 .18.17.18h2.27zM41.81 67.86c-.41 1.67-.8 3.27-1.19 4.88-.07.28-.15.55-.2.83s-.12.21-.28.21h-1.16a.24.24 0 01-.28-.22c-.44-1.77-.89-3.55-1.34-5.32a.89.89 0 00-.14-.32c-.1.91-.18 1.79-.27 2.67s-.21 2-.31 3c0 .13-.06.15-.17.15h-1.89c-.18 0-.19-.06-.17-.21.15-1.16.29-2.32.44-3.48.2-1.56.4-3.11.59-4.67.06-.43.05-.43.48-.43h2.35c.2 0 .25.08.28.24.31 1.45.63 2.89.89 4.35a1.64 1.64 0 00.08.24c.27-1.59.63-3.1 1-4.61 0-.16.08-.22.24-.21h2.67c.16 0 .22.05.24.2q.33 2.84.73 5.56c.13 1 .25 1.9.39 2.84 0 .18 0 .22-.19.22h-1.91c-.2 0-.24-.07-.26-.25L41.86 68zM50.27 69.72c.09-.49.17-1 .28-1.45.23-1 .47-2.06.7-3.1 0-.15.09-.18.24-.18h2.66c.17 0 .22.05.24.21q.49 3.75 1 7.5c0 .29.07.58.12.87s0 .21-.18.21h-2c-.14 0-.18 0-.2-.18-.11-1.1-.23-2.2-.34-3.29-.09-.8-.17-1.59-.3-2.39-.13.49-.25 1-.37 1.46l-1 4.17c0 .17-.1.24-.29.23h-1.19c-.15 0-.2 0-.24-.19-.48-1.91-1-3.82-1.48-5.73 0 .47-.11.94-.15 1.41-.15 1.44-.29 2.88-.43 4.32 0 .14 0 .19-.2.19h-1.91c-.13 0-.16 0-.14-.17L46 67c.08-.6.16-1.2.22-1.8 0-.2.1-.25.29-.24h2.48c.23 0 .29.08.33.28.31 1.46.63 2.91.89 4.37v.09zM34.2 69.36a7.4 7.4 0 01-.31 2.09A3.5 3.5 0 0130.16 74a3.44 3.44 0 01-3.29-2.3 5.53 5.53 0 01-.29-1.2 7.13 7.13 0 01.28-3.5A3.39 3.39 0 0130 64.75a4.43 4.43 0 012 .34 3.56 3.56 0 012 2.73 8 8 0 01.2 1.54zm-5.19 0a6.59 6.59 0 00.18 1.81A1.09 1.09 0 0030 72a1.18 1.18 0 001.47-.91 7 7 0 00.18-2.28 3.25 3.25 0 00-.33-1.37 1.07 1.07 0 00-.8-.63 1.1 1.1 0 00-1.27.8 5.12 5.12 0 00-.25 1.7zM64.09 69.83v3.61c0 .27-.06.35-.33.34h-1.84c-.16 0-.22 0-.22-.21V65.2c0-.15 0-.22.2-.21C63 65 64 65 65 65a3.74 3.74 0 012.07.69 2.37 2.37 0 01-.23 4c-.18.1-.2.18-.11.36.56 1.15 1.11 2.31 1.66 3.46l.09.21c-.06.07-.14 0-.2 0h-2.03a.29.29 0 01-.3-.2c-.56-1.17-1.12-2.34-1.69-3.51l-.12-.25zm.25-1.08a1.87 1.87 0 00.68-.12.81.81 0 00.63-.79 1 1 0 00-.59-1 3 3 0 00-.78-.16c-.16 0-.21 0-.21.19v1.6c-.01.23.03.37.27.28zM56.23 69.4v-4.14c0-.18 0-.26.25-.26h4.32c.2 0 .24.06.23.25v1.42c0 .16 0 .22-.21.21h-2c-.16 0-.21 0-.21.19v1.22c0 .18.07.2.22.2h1.68c.16 0 .21 0 .21.2v1.45c0 .15-.05.18-.19.18h-1.7c-.17 0-.25 0-.24.23a11.22 11.22 0 010 1.16c0 .18 0 .23.23.23h2c.18 0 .24 0 .23.23v1.45c0 .15 0 .21-.2.21h-4.43c-.2 0-.2-.1-.19-.24z" fill="#020202"/><path d="M74.14 72.75v.88c0 .12 0 .17-.16.21A4.47 4.47 0 0168.23 70a4.66 4.66 0 01.83-3.53 4.49 4.49 0 014.22-1.73c.28 0 .64 0 .81.16s0 .53 0 .8v1.06c0 .19-.05.22-.22.17a3.24 3.24 0 00-1.35-.12 2.06 2.06 0 00-1.73 1.57 3.18 3.18 0 000 1.93 2.15 2.15 0 002.42 1.53c.22 0 .44-.08.66-.14s.22 0 .21.18.06.59.06.87zM26 72.77v.86c0 .12 0 .18-.16.21A4.47 4.47 0 0120.07 70a5.4 5.4 0 01.14-2.12 4.34 4.34 0 014-3.13 6.62 6.62 0 011.54.11c.14 0 .22.08.21.25v1.68c0 .18 0 .22-.21.17a3.34 3.34 0 00-1.44-.11 2.11 2.11 0 00-1.7 1.76 3.1 3.1 0 00.14 1.95 2.14 2.14 0 002.34 1.31l.66-.13c.18-.06.22 0 .21.17s.04.58.04.86z" fill="#020202"/><path d="M29.2 44.32c.79-1.52 1.52-2.9 2.25-4.29l3.06-5.82a3.75 3.75 0 01.77-1.07 1.73 1.73 0 012.82.55 8 8 0 01.5 2 47.44 47.44 0 001.89 6.74c0 .15.12.29.24.56.19-1.65.37-3.16.63-4.66a29.22 29.22 0 012.55-8.62 2 2 0 013.09-.78 2 2 0 01.72 2.44 28.17 28.17 0 00-2.29 8 56.06 56.06 0 00-.92 9.32 9.38 9.38 0 010 1.91 1.79 1.79 0 01-3.13 1.07 12.37 12.37 0 01-2.13-2.49 28.41 28.41 0 01-3.52-7.8l-.09-.28s0-.05-.08-.11l-2.26 4.47A38.83 38.83 0 0130.92 50a7.18 7.18 0 01-1.52 1.78 1.36 1.36 0 01-2.29-.44 13.55 13.55 0 01-1.27-3.44 120.33 120.33 0 01-2.57-12.18c-.21-1.28-.42-2.55-.61-3.83a1.92 1.92 0 01.78-2 2.29 2.29 0 012.34-.18 1.75 1.75 0 01.93 1.52c.6 3.93 1.27 7.84 2.17 11.72.12.44.19.84.32 1.37zM61.53 39.07a12.82 12.82 0 01-2.78 8.11 6.15 6.15 0 01-8.38 1.37 6.54 6.54 0 01-2.68-4.42 12.67 12.67 0 012.65-10.64 6.11 6.11 0 0110.58 1.83 10.18 10.18 0 01.61 3.75zm-4.08.19a6 6 0 00-.91-3.21 1.57 1.57 0 00-2.23-.51 2.92 2.92 0 00-.79.65 7.79 7.79 0 00-1.92 6.1 4.83 4.83 0 00.95 2.49 1.42 1.42 0 001.65.53 3 3 0 001.31-.84 7.39 7.39 0 001.94-5.21zM76.89 39.33a13 13 0 01-2.69 7.74 6.15 6.15 0 01-8.76 1.27 6.63 6.63 0 01-2.38-4.18 12.33 12.33 0 013-11.07 6 6 0 018.41-.43 7.2 7.2 0 012.24 4.42 10.24 10.24 0 01.18 2.25zm-10 2.38a6 6 0 00.72 2.67 1.62 1.62 0 002.56.64 4.85 4.85 0 001.73-2 8.51 8.51 0 00.87-4.18 5.32 5.32 0 00-.86-2.78 1.59 1.59 0 00-2.26-.55 3.3 3.3 0 00-1 .88 8.08 8.08 0 00-1.74 5.32z" fill="#fdfdfd"/><path d="M57.45 39.26a7.39 7.39 0 01-1.94 5.21 3 3 0 01-1.31.84 1.42 1.42 0 01-1.65-.53 4.83 4.83 0 01-.95-2.49 7.79 7.79 0 011.92-6.1 2.92 2.92 0 01.79-.65 1.57 1.57 0 012.23.51 6 6 0 01.91 3.21zM66.91 41.71a8.08 8.08 0 011.78-5.29 3.3 3.3 0 011-.88 1.59 1.59 0 012.26.55 5.32 5.32 0 01.86 2.78 8.51 8.51 0 01-.87 4.18 4.85 4.85 0 01-1.73 2 1.62 1.62 0 01-2.56-.64 6 6 0 01-.74-2.7z" fill="#9b5c8f"/></symbol><symbol viewBox="0 0 100 100" id="cloud2" xmlns="http://www.w3.org/2000/svg"><g data-name="6KkfLv"><path d="M36.78 28.36a3.29 3.29 0 001.16.28 12.1 12.1 0 016.91 4.14c.27.33.4.33.71 0a11 11 0 0117 2.18.58.58 0 00.87.28 13.66 13.66 0 116.71 26.3 11.91 11.91 0 01-3.86-.07.74.74 0 00-.89.4 9.88 9.88 0 01-12.16 3.82c-.44-.18-.6-.11-.82.32a11.1 11.1 0 01-9 6.26 11.27 11.27 0 01-11.58-6.77c-.19-.46-.39-.52-.86-.45a10.59 10.59 0 01-7.15-19.44c.38-.25.25-.43.15-.71a12.2 12.2 0 018.73-16.26 4.12 4.12 0 001.34-.33zm14.39 26.12a1.91 1.91 0 001.66-.72 3.84 3.84 0 00.63-1.62c.26-1.39.53-2.77.73-4.16.09-.62.29-.93 1-.79s.62-.34.64-.71-.39-.2-.61-.27a.71.71 0 00-.29 0c-.3 0-.35-.08-.29-.37.18-.85.45-1.09 1.39-1 .56 0 .47-.45.56-.73s-.26-.27-.43-.3a2.13 2.13 0 00-2.65 1.84c-.1.42-.22.66-.71.6s-.41.4-.47.69.24.29.43.27c.42 0 .44.16.38.49-.14.67-.24 1.35-.38 2a26.17 26.17 0 01-.58 2.93c-.22.71-.56 1-1.2.82s-.57.35-.66.64.29.31.49.37a1.89 1.89 0 00.36.02zM37.84 49.6v-1.65a1.65 1.65 0 00-1-1.61 4 4 0 00-3.19.13c-.45.18-.11.48-.06.73s.23.29.47.18a3.19 3.19 0 011.83-.23.82.82 0 01.73.67c.08.34 0 .55-.42.47a3.23 3.23 0 00-2.22.33 1.73 1.73 0 00-.86 1.9 1.55 1.55 0 001.28 1.35 6.89 6.89 0 003.19-.17c.22-.05.24-.21.24-.4 0-.57.01-1.14.01-1.7zm35.77-.23h1.53c.22 0 .38 0 .4-.3.15-1.71-.75-3-2.47-3a2.52 2.52 0 00-2.53 2.24c-.3 1.64.29 3 1.54 3.44a4.44 4.44 0 002.88 0c.32-.09.42-.24.27-.55s-.09-.61-.57-.42a3.19 3.19 0 01-1.68.14 1.34 1.34 0 01-1.18-1.14c0-.28 0-.44.34-.43s.98.02 1.47.02zm-29.25 0h1.53c.22 0 .37 0 .39-.31.15-1.75-.78-3-2.48-3a2.51 2.51 0 00-2.51 2.19 2.89 2.89 0 001.44 3.45 4.39 4.39 0 003 0c.32-.09.39-.25.25-.56s-.11-.6-.58-.41a3.19 3.19 0 01-1.68.14 1.35 1.35 0 01-1.18-1.21c0-.24 0-.36.3-.35.5.07 1.01.06 1.52.06zm11.54-.32a2.66 2.66 0 001.69 2.8A2.59 2.59 0 0061 50.42a3.23 3.23 0 00-1.25-4.1l-.28-.1c-1.98-.63-3.57.65-3.57 2.83zm-6.73 3h.29a1.79 1.79 0 001.89-1.42c.15-.95-.22-1.5-1.32-1.91-.4-.15-.81-.28-1.21-.44s-.54-.29-.48-.64a.68.68 0 01.69-.53 3.07 3.07 0 011.49.3c.27.12.45.16.56-.2s.26-.56-.19-.75a4 4 0 00-2.3-.27 1.7 1.7 0 00-1.44 1.56 1.51 1.51 0 001.13 1.59c.44.17.89.29 1.33.45s.68.3.57.76-.43.52-.8.54a3.09 3.09 0 01-1.63-.41c-.17-.09-.4-.4-.54 0s-.43.61.1.88a4 4 0 001.86.44zM30.24 52h.3a1.79 1.79 0 001.89-1.43c.15-.94-.23-1.49-1.33-1.9-.4-.15-.81-.28-1.21-.44s-.55-.29-.48-.65a.69.69 0 01.7-.52 3.15 3.15 0 011.48.3c.23.09.44.23.53-.15s.37-.55-.11-.77a3.79 3.79 0 00-2.41-.29 1.7 1.7 0 00-1.38 1.55 1.52 1.52 0 001.14 1.59c.44.18.89.29 1.33.46s.64.27.58.7-.43.57-.83.59a3.14 3.14 0 01-1.63-.41c-.14-.08-.37-.4-.5 0s-.49.61 0 .9a3.62 3.62 0 001.93.47zm38.38-5.93a2.7 2.7 0 00-2.91 2.77 4.18 4.18 0 00.1 1.11 2.45 2.45 0 002.28 2 5.88 5.88 0 001.51-.09c.5-.09.61-.28.4-.74-.13-.3-.25-.35-.56-.27-1.08.26-1.9 0-2.23-.67a2.5 2.5 0 01.1-2.47 1.6 1.6 0 012-.54c.64.16.71-.22.78-.61s-.38-.34-.61-.41a3.59 3.59 0 00-.86-.08zM39 47.87v3.46c0 .45.13.58.57.55s.66 0 .65-.52v-7c0-.5-.21-.52-.6-.52s-.64 0-.62.55c.05 1.17 0 2.33 0 3.48zM62.15 49v2.29c0 .47.14.58.59.59s.64-.12.62-.62a22 22 0 010-2.81 1.2 1.2 0 011.35-1.23.73.73 0 00.75-.78c0-.39-.41-.26-.64-.29a1.67 1.67 0 00-1.18.27c-.13.08-.23.28-.4-.07s-.64-.15-1-.12-.16.31-.16.49c.07.77.07 1.53.07 2.28z" fill="#01a1df"/><path d="M51.17 54.48a1.89 1.89 0 01-.41 0c-.2-.06-.61 0-.49-.37s0-.78.66-.64 1-.11 1.2-.82a26.17 26.17 0 00.58-2.93c.14-.67.24-1.35.38-2 .06-.33 0-.53-.38-.49-.19 0-.49.1-.43-.27s-.07-.76.47-.69.61-.18.71-.6a2.13 2.13 0 012.65-1.84c.17 0 .53 0 .43.3s0 .76-.56.73c-.94-.06-1.21.18-1.39 1-.06.29 0 .4.29.37a.71.71 0 01.29 0c.22.07.63-.23.61.27s0 .84-.64.71-.86.17-1 .79c-.2 1.39-.47 2.77-.73 4.16a3.84 3.84 0 01-.63 1.62 1.91 1.91 0 01-1.61.7zM37.84 49.6v1.7c0 .19 0 .35-.24.4a6.89 6.89 0 01-3.19.17 1.55 1.55 0 01-1.28-1.35 1.73 1.73 0 01.86-1.9 3.23 3.23 0 012.22-.33c.47.08.5-.13.42-.47a.82.82 0 00-.73-.67 3.19 3.19 0 00-1.83.23c-.24.11-.41.13-.47-.18s-.39-.55.06-.73a4 4 0 013.19-.13 1.65 1.65 0 011 1.61v1.65zm-1.18.5c0-.92 0-.92-.94-.92s-1.41.32-1.42 1 .4.91 1.24.91c1.08-.09 1.12-.09 1.12-.99zM73.61 49.37h-1.47c-.47 0-.39.15-.34.43a1.34 1.34 0 001.2 1.13 3.19 3.19 0 001.68-.14c.48-.19.45.18.57.42s0 .46-.27.55a4.44 4.44 0 01-2.88 0c-1.25-.47-1.84-1.8-1.54-3.44a2.52 2.52 0 012.53-2.24c1.72-.06 2.62 1.27 2.47 3 0 .26-.18.3-.4.3zm-.51-.92h.93c.31 0 .35-.06.29-.34a1.18 1.18 0 00-1-1 1.14 1.14 0 00-1.3.58c-.12.21-.31.47-.18.7s.39.06.6.07.44-.01.66-.01zM44.36 49.37h-1.53c-.27 0-.32.11-.3.35a1.35 1.35 0 001.18 1.21 3.19 3.19 0 001.68-.14c.47-.19.46.16.58.41s.07.47-.25.56a4.39 4.39 0 01-3 0 2.89 2.89 0 01-1.44-3.45 2.51 2.51 0 012.51-2.19c1.7-.07 2.63 1.22 2.48 3 0 .26-.17.31-.39.31zm-.54-.93h1c.25 0 .28-.1.24-.33a1.22 1.22 0 00-1.21-1.06 1.3 1.3 0 00-1.28 1.08c0 .24 0 .31.26.31zM55.9 49.05c0-2.18 1.59-3.46 3.52-2.83l.28.1a3.23 3.23 0 011.3 4.1 2.59 2.59 0 01-3.36 1.43 2.66 2.66 0 01-1.74-2.8zm4 0a2.76 2.76 0 00-.2-1.2 1.18 1.18 0 00-1.19-.78 1.16 1.16 0 00-1.18.79 3.43 3.43 0 000 2.3 1.16 1.16 0 001.21.83 1.18 1.18 0 001.2-.85 2.68 2.68 0 00.18-1.07z" fill="#f6fbfd"/><path d="M49.17 52a4 4 0 01-1.86-.46c-.53-.27-.19-.59-.1-.88s.37-.12.54 0a3.09 3.09 0 001.63.41c.37 0 .71-.13.8-.54s-.22-.63-.57-.76-.89-.28-1.33-.45a1.51 1.51 0 01-1.13-1.59 1.7 1.7 0 011.44-1.56 4 4 0 012.3.27c.45.19.27.45.19.75s-.29.32-.56.2a3.07 3.07 0 00-1.49-.3.68.68 0 00-.69.53c-.06.35.2.53.48.64s.81.29 1.21.44c1.1.41 1.47 1 1.32 1.91A1.79 1.79 0 0149.46 52zM30.24 52a3.62 3.62 0 01-1.9-.49c-.52-.29-.13-.62 0-.9s.36-.06.5 0a3.14 3.14 0 001.63.41c.4 0 .75-.14.83-.59s-.26-.59-.58-.7-.89-.28-1.33-.46a1.52 1.52 0 01-1.14-1.59 1.7 1.7 0 011.38-1.55 3.79 3.79 0 012.41.29c.48.22.17.49.11.77s-.3.24-.53.15a3.15 3.15 0 00-1.48-.3.69.69 0 00-.7.52c-.07.36.2.53.48.65s.81.29 1.21.44c1.1.41 1.48 1 1.33 1.9A1.79 1.79 0 0130.54 52zM68.62 46.07a3.59 3.59 0 01.81.1c.23.07.69-.06.61.41s-.14.77-.78.61a1.6 1.6 0 00-2 .54 2.5 2.5 0 00-.1 2.47c.33.69 1.15.93 2.23.67.31-.08.43 0 .56.27.21.46.1.65-.4.74a5.88 5.88 0 01-1.51.09 2.45 2.45 0 01-2.28-2 4.18 4.18 0 01-.1-1.11 2.7 2.7 0 012.96-2.79zM39 47.87v-3.46c0-.52.22-.56.62-.55s.6 0 .6.52v7c0 .56-.29.49-.65.52s-.58-.1-.57-.55v-3.48zM62.15 49v-2.28c0-.18-.12-.47.16-.49s.78-.23 1 .12.27.15.4.07a1.67 1.67 0 011.18-.27c.23 0 .61-.1.64.29a.73.73 0 01-.75.78 1.2 1.2 0 00-1.35 1.23 22 22 0 000 2.81c0 .5-.14.62-.62.62s-.61-.12-.59-.59c-.04-.75-.07-1.52-.07-2.29z" fill="#f6fbfd"/><path d="M36.66 50.1c0 .91 0 .94-1.12.94-.84 0-1.25-.3-1.24-.91s.51-1 1.42-1 .94.05.94.97zM73.1 48.45h-.65c-.22 0-.5.11-.6-.07s.06-.49.18-.7a1.14 1.14 0 011.3-.58 1.18 1.18 0 011 1c.06.28 0 .35-.29.34s-.63.01-.94.01zM43.82 48.44h-1c-.23 0-.31-.07-.26-.31a1.3 1.3 0 011.28-1.08 1.22 1.22 0 011.21 1.06c0 .23 0 .33-.24.33zM59.92 49.07a2.68 2.68 0 01-.17 1.09 1.18 1.18 0 01-1.2.85 1.16 1.16 0 01-1.21-.83 3.43 3.43 0 010-2.3 1.16 1.16 0 011.18-.79 1.18 1.18 0 011.19.78 2.76 2.76 0 01.21 1.2z" fill="#01a1df"/></g></symbol><symbol viewBox="0 0 100 100" id="cloud3" xmlns="http://www.w3.org/2000/svg"><path d="M52.06 42.15c2.08 2.11 3.77 3.9 5.55 5.6.65.62.47 1.22.41 1.92a4.6 4.6 0 004.36 5.17 4.74 4.74 0 004.77-4.66 4.56 4.56 0 00-5.07-4.45 2.36 2.36 0 01-2.14-.86l-3-3c-1.32-1.35-2.75-2.42-2.54-4.83s-2.23-4-4.62-3.8a2.62 2.62 0 01-2.43-1c-1.58-1.66-3.21-3.29-4.88-4.87-.71-.67-.79-1.1 0-1.8 1.47-1.36 2.83-2.82 4.26-4.23 2.06-2 4.12-2.07 6.18 0 3.36 3.3 6.67 6.65 10 10l15.25 15.22c2.45 2.46 2.45 4.38 0 6.81Q65.76 65.8 53.32 78.23c-2.38 2.38-4.32 2.38-6.68 0L21.76 53.42c-2.63-2.63-2.63-4.44 0-7.06C27.11 41 32.51 35.64 37.83 30.22c.94-1 1.47-1 2.32 0 1 1.17 2.15 2.18 3.23 3.27 1.24 1.26 2.74 2.25 2.15 4.55-.32 1.22.57 2.53 1.73 3.28a2.06 2.06 0 011 2q-.07 6.88 0 13.78a2.23 2.23 0 01-1 2 4.45 4.45 0 00-.6 6.68 4.54 4.54 0 006.49.22 4.43 4.43 0 00-.13-6.7 2.56 2.56 0 01-1-2.24c.06-4.75.04-9.56.04-14.91z" fill="#f2502a"/></symbol><symbol viewBox="0 0 100 100" id="cloud4" xmlns="http://www.w3.org/2000/svg"><path d="M56.31 79a24.37 24.37 0 01-17.26-7.17 27 27 0 01-4.35-5.36.53.53 0 00-.52-.29 8.32 8.32 0 01-7.8-10.7.63.63 0 00-.28-.82c-.59-.4-1.12-.87-1.7-1.28A5.19 5.19 0 0122.22 49a15.22 15.22 0 011.38-6.31 44.9 44.9 0 018.16-12.55A37.83 37.83 0 0141.43 22a11.93 11.93 0 015.47-1.76 5.14 5.14 0 013.61 1.22c.53.44 1.09.85 1.61 1.31a.59.59 0 00.82.06 20.22 20.22 0 016.79-2.66 9.63 9.63 0 013.82 0c2.82.61 4.41 2.95 4.16 6a17 17 0 01-2.79 7.59.67.67 0 00.09.94c.85 1.1 1.62 2.26 2.46 3.38a7.47 7.47 0 011.1 3.7c.14 1.22.25 2.44.36 3.66a1 1 0 00.67 1A14.5 14.5 0 0173.85 49a1.4 1.4 0 00.47.24 3 3 0 011.42 4.86.45.45 0 00-.08.63.68.68 0 01.12.26 3.2 3.2 0 001.75 2.33 2.29 2.29 0 011 2.95 38.07 38.07 0 01-4.08 8.95 21.08 21.08 0 01-12.52 9.12 21.8 21.8 0 01-5.62.66zm-3.78-54.31c-.71-.76-1.62-1.31-2.32-2.07a1.36 1.36 0 00-1.9-.28l-.15.1a3.21 3.21 0 00-1.79-.06 13.81 13.81 0 00-5.12 2.19 40.69 40.69 0 00-9.67 8.89 31.4 31.4 0 00-3 4.23A32.87 32.87 0 0025 44.9a11 11 0 00-.69 4.35 3.18 3.18 0 00.67 2A14.55 14.55 0 0027.13 53c.19.15.34.18.49 0a8.33 8.33 0 012.56-2.35l.09-.11.45-.15a7.5 7.5 0 015.45-.26c.62.22.8.06 1-.49a39.31 39.31 0 014.54-8.23l.18-.12a3.26 3.26 0 00.4-.34 21.47 21.47 0 013.4-3.27 25.47 25.47 0 0110.65-5.24 12.07 12.07 0 015.08-.17 10.36 10.36 0 001.62.48c.35.19.35-.17.43-.31a15 15 0 002.34-6.25c.21-2-.59-3.87-2.94-4.35a8.67 8.67 0 00-3.09 0 9.39 9.39 0 00-2.62.64 33.29 33.29 0 00-4.63 2.21zm3.85 37.93c0 .36-.13.73.09 1.07A2.25 2.25 0 0058 65.24a7.38 7.38 0 002.54.44 18 18 0 007.33-1.5A24.05 24.05 0 0074.51 60c.15-.05.23-.26.48-.2a4.82 4.82 0 01-1 1.38 20.28 20.28 0 01-8.82 5 14 14 0 01-6.37.47c-2.65-.46-4-2.29-3.48-4.73a2.83 2.83 0 013-2 21.2 21.2 0 005.68-.74 19.49 19.49 0 0010.22-6.37 1 1 0 00-.37-1.64A1.85 1.85 0 0073 51a6.69 6.69 0 00-1-.94 20.16 20.16 0 00-4.26-2.37 2.21 2.21 0 01-.63-1.22c-.29-1.62-.31-3.28-.56-4.9a4.86 4.86 0 00-1.17-3 1.89 1.89 0 00-1.38-.74 2.93 2.93 0 00-2.5 1 6.48 6.48 0 01-5.09 1.92 14.11 14.11 0 00-3.84 0 5.84 5.84 0 00-4.5 6.25 11.09 11.09 0 00.11 2.27l-1-.75a7.84 7.84 0 002.74 4.4c-.21.24-.49 0-.7.21a11 11 0 002.48 1.47l-.47.52a9.47 9.47 0 00-2.64 8l.63-.82a9 9 0 00.45 4.29l.86-1.64a9.5 9.5 0 001.14 4.22 5.23 5.23 0 01.25-1.36c.11.24.21.43.29.63a6.94 6.94 0 005.08 4.21 16.32 16.32 0 0016.39-6.31 13.11 13.11 0 002.36-5 2.91 2.91 0 00.62-1.06 1.19 1.19 0 00-1.2-1.68 2.64 2.64 0 01-.93 0 6.86 6.86 0 00-.91-3.43c-.27.25-.48.45-.7.64s-.45.39-.68.57A23.7 23.7 0 0158 61.08a1.42 1.42 0 00-1.62 1.54zm-17.1-4.7a14.29 14.29 0 00-.69-3.73L38 55.7a12.12 12.12 0 00-.47-1.89 2.83 2.83 0 00-2.3-2 6.14 6.14 0 00-2.63 0 6.23 6.23 0 00-4.6 6.54 6.15 6.15 0 005.47 5.88 6 6 0 006.23-4.43 5.59 5.59 0 00.15-2.94zM71.66 74.54c.17-.06.3-.07.4.12s.1.28.2 0 .26-.26.37-.16.07.48.09.72-.14.13-.26.17-.45 0-.66 0c-.4 0-.14-.37-.18-.58z" fill="#684d47"/><path d="M71.66 74.54v.27c-.26 0-.34.11-.33.35s0 .31-.18.3-.19-.2-.15-.31c.1-.28-.41-.43-.21-.59s.57-.09.87-.02z" fill="#9e7558"/><path d="M68 71.14a15.64 15.64 0 01-10.71 1.46 6.94 6.94 0 01-5.08-4.21c-.08-.2-.18-.39-.29-.63a5.23 5.23 0 00-.25 1.36 9.5 9.5 0 01-1.14-4.22l-.86 1.64a9 9 0 01-.45-4.29l-.63.82a9.47 9.47 0 012.64-8l.47-.52a1 1 0 00.32-.13 8.78 8.78 0 013.57-1.75 5.5 5.5 0 001.54-.37c.76-.45 1.53-.89 2.31-1.3a.58.58 0 00.36-.6 4 4 0 015.63-3.5c.19.13.46.22.56.4.45.86 1.09.62 1.75.36A20.16 20.16 0 0172 50.05a6.69 6.69 0 011 .95 7.37 7.37 0 01-2.76 3.68 24.83 24.83 0 01-10.84 4.17 9 9 0 00-3.13.75 1.87 1.87 0 00-1 2.32c-.49 2.44.83 4.27 3.48 4.73a14 14 0 006.37-.47 20.28 20.28 0 008.82-5 4.82 4.82 0 001-1.38c-.25-.06-.33.15-.48.2v-1.46a2.64 2.64 0 00.93 0 1.19 1.19 0 011.2 1.68 2.91 2.91 0 01-.59 1.1c-.36.42-.7.85-1.08 1.25a22.14 22.14 0 01-9.65 6.05c-.52.16-.35.28-.11.54A11 11 0 0068 71.14zm-4.44-21a4.14 4.14 0 011.22-.48c.27.34.58.51 1 .17a1.08 1.08 0 00.23-1.16c-.12-.39-.46-.37-.79-.35a1.77 1.77 0 00-2.74 1c-.42.1-.81.24-.69.81a1.21 1.21 0 001.16.82c.42.05.58-.32.58-.76z" fill="#f3dab9"/><path d="M41.71 41.4a39.31 39.31 0 00-4.54 8.23c-.21.55-.39.71-1 .49a7.5 7.5 0 00-5.45.26l-.45.15a2 2 0 01.18-.8 38.3 38.3 0 016.44-11.56 40.26 40.26 0 018.48-8.26c.15-.1.27-.32.51-.2 0 .27-.22.35-.36.49a59.77 59.77 0 00-4.71 5.23 37.27 37.27 0 00-4.1 6c.3.06.37-.17.49-.3 1.21-1.43 2.41-2.87 3.63-4.29a55.45 55.45 0 017.65-8 51.44 51.44 0 018.25-5.72c1-.5 2-.85 3.06-1.27a8.67 8.67 0 013.09 0c2.35.48 3.15 2.31 2.94 4.35a15 15 0 01-2.34 6.25c-.08.14-.08.5-.43.31a4.74 4.74 0 00-2.83-2.24c-.05.24.16.31.18.47-.56-.07-1-.48-1.51-.62a2.75 2.75 0 00-1.23-.28c.11.31.41.43.45.79a7.24 7.24 0 00-3.7-.41c.36.34.86.32 1.1.76a9.23 9.23 0 00-5.3.76 4.66 4.66 0 011.7.35A11 11 0 0048 34c.5.13.91-.13 1.41 0l-.28.19A23.24 23.24 0 0042.71 40a3.17 3.17 0 00-.82 1.33z" fill="#132131"/><path d="M67.74 47.68c-.66.26-1.3.5-1.75-.36-.1-.18-.37-.27-.56-.4a4.73 4.73 0 00-.86-2.77c-.19-.28-.44-.55-.82-.45s-.45.47-.49.8a4.64 4.64 0 00.25 2.09 4 4 0 00-3.71 3.83.58.58 0 01-.36.6c-.78.41-1.55.85-2.31 1.3a5.5 5.5 0 01-1.54.37A8.78 8.78 0 0052 54.44a1 1 0 01-.32.13 11 11 0 01-2.48-1.47c.21-.17.49 0 .7-.21a7.84 7.84 0 01-2.74-4.4l1 .75a11.09 11.09 0 01-.09-2.24c.11-.08.09-.2.11-.32a5 5 0 015.7-4 15 15 0 004.34 0 7.77 7.77 0 005.15-3.13 2 2 0 012-1 4.86 4.86 0 011.17 3c.25 1.62.27 3.28.56 4.9a2.21 2.21 0 00.64 1.23zM55 47.44a3.85 3.85 0 00-2.58 1c-.22.2-.67.43-.43.79s.54-.05.8-.15a6.13 6.13 0 012.81-.49 9 9 0 011.92.56c.17.06.38.15.5 0s-.06-.36-.18-.49A3.63 3.63 0 0055 47.44zm2.56 3.19a.24.24 0 00.25-.14c.08-.22-.13-.31-.27-.4a2.69 2.69 0 00-3.14.52c-.1.12-.27.25-.17.41s.31.07.46 0a4.92 4.92 0 012.91-.39z" fill="#e9bd8c"/><path d="M28.58 37.69a31.4 31.4 0 013-4.23 40.69 40.69 0 019.67-8.89 13.81 13.81 0 015.12-2.19 3.21 3.21 0 011.79.06 2.4 2.4 0 00-.21 1.94 10.23 10.23 0 01-1.57-.49 2.15 2.15 0 00-2.44.35 4.15 4.15 0 00.35 1.77 15.82 15.82 0 00.31 2.57.71.71 0 01-.32.8 34 34 0 00-4.78 4 42 42 0 00-6 7.41c-.23.37-.37.44-.75.13-1.38-1.05-2.75-2.13-4.17-3.23z" fill="#46b7e1"/><path d="M28.58 37.69c1.39 1.1 2.79 2.18 4.15 3.31.38.31.52.24.75-.13a42 42 0 016-7.41 34 34 0 014.78-4 .71.71 0 00.32-.8 15.82 15.82 0 01-.31-2.57c1 .78 1.94 1.66 2.89 2.51a2.91 2.91 0 01-1 .87c-.06 0-.14 0-.1.12-.14-.06-.22 0-.24.13-.24-.12-.36.1-.51.2a40.26 40.26 0 00-8.48 8.26 38.3 38.3 0 00-6.44 11.56 2 2 0 00-.18.8l-.09.11a8.33 8.33 0 00-2.5 2.35c-.15.22-.3.19-.49 0A14.55 14.55 0 0125 51.23a3.18 3.18 0 01-.67-2A11 11 0 0125 44.9a32.87 32.87 0 013.58-7.21z" fill="#0787be"/><path d="M74.53 58.57v1.46a24.05 24.05 0 01-6.68 4.15 18 18 0 01-7.33 1.5 7.38 7.38 0 01-2.52-.44 2.25 2.25 0 01-1.49-1.55c.37 0 .74.09 1.12.11a19.74 19.74 0 009.71-1.8 2.61 2.61 0 001.07-.71c-.14-.09-.25 0-.36 0a40.62 40.62 0 01-5.41 1.42 13.93 13.93 0 01-6.26-.07A1.42 1.42 0 0158 61.08a23.7 23.7 0 0014.27-4.73c.23-.18.46-.37.68-.57s.43-.39.7-.64a6.86 6.86 0 01.88 3.43z" fill="#fdfcfc"/><path d="M39.28 57.92l.58-1.06a5.59 5.59 0 01-.15 2.94 6 6 0 01-6.23 4.43A6.15 6.15 0 0128 58.35a6.23 6.23 0 014.62-6.55 6.14 6.14 0 012.63 0 2.83 2.83 0 012.3 2 12.12 12.12 0 01.45 1.9l.56-1.51a14.29 14.29 0 01.72 3.73zm-3.08-1.69c.15.15.13.54.45.44s.28-.4.27-.66a2.2 2.2 0 00-1.3-1.85 3.55 3.55 0 00-4 .34 3.65 3.65 0 00-1.34 3.85 2.57 2.57 0 00.57 1.28c.16.19.37.38.61.25s0-.38 0-.56a3.66 3.66 0 01.38-3.32c.27.29 0 .59 0 .9a4.28 4.28 0 002.44 3.37 12.69 12.69 0 001.68.46 1.6 1.6 0 01-1.47.42c-.12 0-.29-.11-.36.06s.09.25.2.32a1.79 1.79 0 001.8.13 2.22 2.22 0 001.35-2.06 2.05 2.05 0 00-1.33-2c-1-.52-1-.68-.4-1.45zM65.38 38.56a2 2 0 00-2 1 7.77 7.77 0 01-5.15 3.13 15 15 0 01-4.34 0 5 5 0 00-5.7 4c0 .12 0 .24-.11.32a5.84 5.84 0 014.52-6.23 14.11 14.11 0 013.84 0 6.48 6.48 0 005.09-1.92 2.93 2.93 0 012.5-1 1.89 1.89 0 011.35.7z" fill="#f2d9b8"/><path d="M60.39 31c0-.16-.23-.23-.18-.47A4.74 4.74 0 0163 32.74a10.36 10.36 0 01-1.62-.48 12.07 12.07 0 00-5.08.17 25.47 25.47 0 00-10.65 5.24 21.47 21.47 0 00-3.4 3.27 3.26 3.26 0 01-.4.34 3.17 3.17 0 01.86-1.28 23.24 23.24 0 016.38-5.76l.28-.19c-.5-.13-.91.13-1.41 0a11 11 0 013.95-1.69 4.66 4.66 0 00-1.7-.35 9.23 9.23 0 015.3-.76c-.24-.44-.74-.42-1.1-.76a7.24 7.24 0 013.7.41c0-.36-.34-.48-.45-.79a2.75 2.75 0 011.23.28c.53.14 1 .55 1.51.62v.07z" fill="#987155"/><path d="M55.28 61.91a1.87 1.87 0 011-2.32 9 9 0 013.13-.75 24.83 24.83 0 0010.84-4.17A7.37 7.37 0 0073 51a1.85 1.85 0 01.86.18 1 1 0 01.37 1.64A19.49 19.49 0 0164 59.18a21.2 21.2 0 01-5.66.74 2.83 2.83 0 00-3.06 1.99z" fill="#e8bd8d"/><path d="M68 71.14a11 11 0 01-2.77-2c-.24-.26-.41-.38.11-.54A22.14 22.14 0 0075 62.57c.38-.4.72-.83 1.08-1.25a13.11 13.11 0 01-2.36 5A15.66 15.66 0 0168 71.14z" fill="#e9bd8c"/><path d="M46.16 29.44a2.91 2.91 0 001-.87 3.68 3.68 0 001-.83 4.68 4.68 0 001-.77 5 5 0 001-.72l.53-.37a3.61 3.61 0 00.86-.58 3.83 3.83 0 001-.61 33.29 33.29 0 014.63-2.21 9.39 9.39 0 012.62-.64c-1 .42-2.07.77-3.06 1.27a51.44 51.44 0 00-8.25 5.72 55.45 55.45 0 00-7.65 8c-1.22 1.42-2.42 2.86-3.63 4.29-.12.13-.19.36-.49.3a37.27 37.27 0 014.1-6 59.77 59.77 0 014.71-5.23c.14-.14.39-.22.36-.49.17.13.22 0 .24-.13.04.02.02-.07.03-.13z" fill="#f6f6f7"/><path d="M52.53 24.69a3.83 3.83 0 01-1 .61l-1.29-1 .43 1.61-.53.37-2.65-.79c.61.62 1.23 1 1.67 1.51a4.68 4.68 0 01-1 .77l-4.25-3.45a2.15 2.15 0 012.44-.35 10.23 10.23 0 001.57.49 1.46 1.46 0 00.87.29 20.08 20.08 0 00-.66-2.23l.15-.1a1.36 1.36 0 011.9.28c.73.68 1.64 1.23 2.35 1.99z" fill="#f9cd4f"/><path d="M56.38 62.62a13.93 13.93 0 006.26.07 40.62 40.62 0 005.41-1.42c.11 0 .22-.1.36 0a2.61 2.61 0 01-1.07.71 19.74 19.74 0 01-9.75 1.83c-.38 0-.75-.07-1.12-.11-.22-.35-.08-.7-.09-1.08z" fill="#eac091"/><path d="M41.71 41.4l.18-.12z" fill="#987155"/><path d="M30.18 50.63l.09-.11z" fill="#132131"/><path d="M63.51 46.59a4.64 4.64 0 01-.25-2.09c0-.33.1-.7.49-.8s.63.17.82.45a4.73 4.73 0 01.86 2.77 4 4 0 00-1.92-.33z" fill="#684d47"/><path d="M64.75 49.71a4.14 4.14 0 00-1.22.48 1.44 1.44 0 00-1.13-.85 1.77 1.77 0 012.74-1 1.31 1.31 0 00-.39 1.37z" fill="#e8bd8d"/><path d="M62.4 49.34a1.44 1.44 0 011.13.85c0 .44-.16.76-.66.78a1.21 1.21 0 01-1.16-.82c-.12-.57.29-.71.69-.81zM64.75 49.71a1.31 1.31 0 01.39-1.34c.33 0 .67 0 .79.35a1.08 1.08 0 01-.23 1.16c-.37.34-.7.17-.95-.17zM55 47.44a3.63 3.63 0 012.84 1.23c.12.13.35.28.18.49s-.33.06-.5 0a9 9 0 00-1.92-.56 6.13 6.13 0 00-2.81.49c-.26.1-.62.39-.8.15s.21-.59.43-.79A3.85 3.85 0 0155 47.44zM57.6 50.63a4.92 4.92 0 00-2.87.4c-.15.06-.34.2-.46 0s.07-.29.17-.41a2.69 2.69 0 013.14-.52c.14.09.35.18.27.4a.24.24 0 01-.25.13z" fill="#9e7558"/><path d="M43.93 24.29l4.25 3.45a3.68 3.68 0 01-1 .83c-1-.85-1.88-1.73-2.89-2.51a4.15 4.15 0 01-.36-1.77zM48.15 22.49a20.08 20.08 0 01.66 2.23 1.46 1.46 0 01-.87-.29 2.4 2.4 0 01.21-1.94z" fill="#162533"/><path d="M46.06 29.56c0 .16-.07.26-.24.13.02-.14.1-.19.24-.13z" fill="#132131"/><path d="M46.16 29.44c0 .06 0 .15-.1.12s.04-.11.1-.12z" fill="#132131"/><path d="M36 60.72a12.69 12.69 0 01-1.68-.46 4.28 4.28 0 01-2.44-3.37c0-.31.26-.61 0-.9a2.87 2.87 0 012.47-1.06 2.07 2.07 0 011.89 1.3l-.44-.12a.61.61 0 00-.85.1 1 1 0 00-.3 1 2.1 2.1 0 001.11 1.23 1.36 1.36 0 01.24 2.28z" fill="#e8bd8d"/><path d="M36.2 56.23a2.07 2.07 0 00-1.89-1.3A2.87 2.87 0 0031.84 56a3.66 3.66 0 00-.45 3.33c.05.18.31.41 0 .56s-.45-.06-.61-.25a2.57 2.57 0 01-.57-1.28 3.65 3.65 0 011.34-3.85 3.55 3.55 0 014-.34A2.2 2.2 0 0136.92 56c0 .26 0 .58-.27.66s-.3-.28-.45-.43z" fill="#9e7558"/><path d="M36 60.72a1.36 1.36 0 00-.25-2.31 2.1 2.1 0 01-1.11-1.23 1 1 0 01.3-1 .61.61 0 01.85-.1c-.65.77-.62.93.4 1.45a2.05 2.05 0 011.33 2 2.22 2.22 0 01-1.35 2.06 1.79 1.79 0 01-1.8-.13c-.11-.07-.26-.17-.2-.32s.24-.09.36-.06a1.6 1.6 0 001.47-.36z" fill="#9e7558"/><path d="M60.39 31v-.07z" fill="#132131"/><path d="M49.18 27c-.44-.54-1.06-.89-1.67-1.51l2.65.79a5 5 0 01-.98.72zM50.69 25.88l-.43-1.61 1.29 1a3.61 3.61 0 01-.86.61z" fill="#162533"/></symbol><symbol viewBox="0 0 100 100" id="cloud5" xmlns="http://www.w3.org/2000/svg"><path d="M58 80.06c-3.5-.63-7-1.24-10.49-1.89C40 76.77 32.48 75.34 24.94 74c-.73-.14-1-.28-.89-1.16q2.25-16.94 4.4-33.88a2.08 2.08 0 011.66-2c1.58-.42 3.13-1 4.71-1.43a1.57 1.57 0 001.25-1.27 24.61 24.61 0 014.55-9.45 10 10 0 017.11-4A3.92 3.92 0 0151 21.89a1.37 1.37 0 00.93.55c2.57.13 4.07 1.71 5.21 3.8.06.12.13.24.19.37.76 1.56.76 1.56 2.38 1.16a1.37 1.37 0 01.8 0c0 1.64-.11 3.27-.19 4.91-.13 2.69-.29 5.38-.4 8.07q-.28 6.39-.64 12.78c-.19 3.64-.23 7.3-.47 10.94-.09 1.43-.11 2.87-.18 4.3q-.3 5.63-.63 11.29zM40.8 71.2a9.84 9.84 0 004.45-1.2c4.18-2.34 6.32-10.51.71-14.9-1.21-1-2.44-1.89-3.63-2.86a2.34 2.34 0 01-.93-2.63 2.66 2.66 0 012.16-1.84 8.74 8.74 0 015.22.61c.55.21.76.14.94-.42.56-1.76 1.13-3.52 1.77-5.25.27-.72 0-1-.62-1.15a13.53 13.53 0 00-11.67 1.83c-4.28 3-6.64 11.08-.51 15.24a12 12 0 011 .85 5.57 5.57 0 011.6 2A2.37 2.37 0 0138.78 65a9.53 9.53 0 01-4.53-2.06c-.54-.39-.78-.34-1 .35-.3 1.16-.65 2.31-1.06 3.43a1.29 1.29 0 00.47 1.6 12.83 12.83 0 008.14 2.88zM48.88 23a5 5 0 00-4.6 1.08c-3.22 2.43-4.63 6-5.89 9.65-.2.59.16.56.53.45l3.43-1.06a.93.93 0 00.68-.79c.85-3.77 2.35-7.15 5.85-9.33zm-3.62 9.22c1.91-.59 3.59-1.14 5.3-1.63.55-.15.67-.44.66-.95a20.8 20.8 0 00-.49-3.86c-.17-.83-.51-.87-1.17-.43-2.38 1.65-3.48 4.02-4.3 6.87zm8.06-2.57c3-.6 3.23-1.09 1.45-3.57a4.9 4.9 0 00-.75-.83 2 2 0 00-1.45-.63 20.77 20.77 0 01.75 5.03z" fill="#94be47"/><path d="M58 80.06q.3-5.66.59-11.33c.07-1.43.09-2.87.18-4.3.24-3.64.28-7.3.47-10.94q.35-6.39.64-12.78c.11-2.69.27-5.38.4-8.07.08-1.64.19-3.27.19-4.91.46-.11.69.24.95.49A18.28 18.28 0 0163.25 30a4.1 4.1 0 003.59 1.53c.68 0 1.36.14 2 .14.84 0 1.1.41 1.22 1.17q2.1 14.35 4.25 28.7c.69 4.63 1.36 9.26 2.07 13.89.12.73-.33.79-.79.89-4.54 1-9.07 2-13.61 2.91-1.29.32-2.63.57-3.98.83z" fill="#5f8e3f"/><path d="M48.88 23c-3.5 2.18-5 5.56-5.85 9.33a.93.93 0 01-.68.79l-3.43 1.06c-.37.11-.73.14-.53-.45 1.26-3.65 2.67-7.22 5.89-9.65a5 5 0 014.6-1.08zM45.26 32.22c.82-2.85 1.92-5.25 4.3-6.87.66-.44 1-.4 1.17.43a20.8 20.8 0 01.49 3.86c0 .51-.11.8-.66.95-1.71.49-3.39 1.04-5.3 1.63zM53.32 29.65a20.77 20.77 0 00-.75-5 2 2 0 011.45.63 4.9 4.9 0 01.75.83c1.78 2.45 1.59 2.94-1.45 3.54z" fill="#fefefe"/></symbol><symbol viewBox="0 0 100 100" id="cloud6" xmlns="http://www.w3.org/2000/svg"><path d="M69 39.36l-12.6-7.71c-1.91-1.18-3.83-2.33-5.72-3.55a1.21 1.21 0 00-1.53 0q-8.86 5.53-17.77 11a5.44 5.44 0 01-.54.27 2.94 2.94 0 01-1.21-.5c-1.93-1-3.85-2.12-5.78-3.19v-.2c.27 0 .44-.16.64-.28Q36.76 27.62 49 20c.21-.13.53-.16.57-.5h.61c.1.4.48.44.75.61q12.09 7.49 24.18 15c.28.17.64.26.78.61-.53.29-1.05.61-1.59.88a52.1 52.1 0 01-5.3 2.76z" fill="#ef5c2a"/><path d="M23.85 35.67c1.93 1.07 3.85 2.14 5.78 3.19a2.94 2.94 0 001.21.5c0 .41-.06.82-.06 1.23v28l-.16.26c-1.91-1.16-3.82-2.32-5.75-3.47-.31-.18-.56-.5-1-.47zM62.11 43.43c0 .61.08 1.22.08 1.83v27.09a1.49 1.49 0 01-.81 1.46c-3.58 2.17-7.14 4.38-10.69 6.6a1.25 1.25 0 01-1.55 0C45.57 78.17 42 76 38.38 73.74a1.16 1.16 0 01-.73-1.09V43.83a2.73 2.73 0 010-.4l1.61.86c2.28 1.16 4.4 2.61 6.75 3.65 0 7.16.13 14.31 0 21.46 0 2.28.56 3.63 2.61 4.59a2.52 2.52 0 002.53 0c2.15-1 2.65-2.43 2.6-4.7-.15-7.12 0-14.24 0-21.36a10.83 10.83 0 001.1-.49c2.43-1.32 4.85-2.67 7.26-4.01zM69 39.36a52.1 52.1 0 005.34-2.79c.54-.27 1.06-.59 1.59-.88v28.25a1.29 1.29 0 01-.73 1.28c-2 1.19-4 2.42-6 3.63l-.16-.26v-25c.01-1.44-.04-2.83-.04-4.23z" fill="#ed4a19"/><path d="M46.08 47.94c-2.35-1-4.47-2.49-6.75-3.65l-1.61-.86c0-.09.05-.22.12-.26L46.08 38zM62.11 43.43c-2.41 1.34-4.83 2.69-7.25 4a10.83 10.83 0 01-1.1.49v-9.7c.11-.09.23 0 .35 0L61.75 43c.17.09.36.18.36.43zM30.58 68.85l.16-.26c0 .12.19.41-.16.26zM69.09 68.59l.16.26c-.34.15-.16-.14-.16-.26z" fill="#ef5c2a"/></symbol><symbol viewBox="0 0 100 100" id="cloud7" xmlns="http://www.w3.org/2000/svg"><path d="M0 100c1-1 22.25-22.84 23.26-23.84l11.3-11.28L44.48 55c.09-.1.19-.18.37-.35V71.1c0 .73.11.85.84.85h15.15a10.3 10.3 0 005-1.06 7.27 7.27 0 003.95-7.16 7.06 7.06 0 00-4.28-6.56c-.16-.07-.38-.3-.36-.4a.86.86 0 01.4-.48 7.22 7.22 0 003.83-4.36 6.92 6.92 0 00-3.29-8 10.09 10.09 0 00-5.19-1.4H57L58.56 41l.34-.32 11.3-11.31 9-8.91L99.81-.19 100 100z" fill="#34313e"/><path d="M20.21 79.59a.73.73 0 00.73.33h58.5c.55 0 .6 0 .6-.62V20.81a2 2 0 00-.23-.64h.34V80H20.21z" fill="#34313e"/><path d="M55.94 59.76h4.17a3.23 3.23 0 013.12 2.53 3.19 3.19 0 01-2.9 4 10.31 10.31 0 01-1.24.07H52c-.61 0-.72-.12-.73-.72v-5.22c0-.57.12-.68.68-.69h4zM55.79 48.08h4a2.88 2.88 0 012.69 1.76 3 3 0 01-.37 3.2 2.92 2.92 0 01-2.2 1.1c-1.07.06-2.14.06-3.22.07h-4.68c-.65 0-.77-.13-.77-.78v-4.66c0-.6.12-.71.7-.71h3.86z" fill="#34313e"/></symbol><symbol viewBox="0 0 100 100" id="cloud8" xmlns="http://www.w3.org/2000/svg"><path d="M79 49.21a10.69 10.69 0 01-2.93 7.89l-15 15a2 2 0 01-2.93.11 2 2 0 01.19-3L73 54.62a6.49 6.49 0 001.76-6.83 6.41 6.41 0 00-5.16-4.67 6.64 6.64 0 00-6.28 2c-3.23 3.25-6.47 6.47-9.7 9.71l-8.38 8.39a2 2 0 11-2.82-2.79q9.18-9.21 18.4-18.39a10.54 10.54 0 0111.69-2.14A10.37 10.37 0 0179 49.21zM20.48 50a10.64 10.64 0 013.1-7.8q7.34-7.38 14.7-14.71a2 2 0 013-.25 2 2 0 01-.23 3q-7.28 7.3-14.57 14.59a6.75 6.75 0 005.14 11.61 6.89 6.89 0 004.58-2.21Q43.46 47 50.69 39.81c1.2-1.21 2.41-2.43 3.63-3.63a2 2 0 112.83 2.76C51 45.08 44.92 51.23 38.75 57.33a10.17 10.17 0 01-10.86 2.58 10.23 10.23 0 01-7.25-8.37 11.66 11.66 0 01-.16-1.54z"/><path d="M43.67 72.82a10.7 10.7 0 01-7.45-2.88A2 2 0 1138.9 67a6.73 6.73 0 009.61-.29l17.95-17.94a4 4 0 011.19-.88 1.89 1.89 0 012.26.74 1.93 1.93 0 01-.24 2.51c-1.32 1.36-2.66 2.68-4 4L51.23 69.6a10.54 10.54 0 01-7.56 3.22zM56 26.66a10.64 10.64 0 017.17 2.78c1.09 1 1.25 2.2.42 3.09s-2 .82-3-.12a6.72 6.72 0 00-9.54.37q-8.58 8.55-17.14 17.14l-1 1a2 2 0 01-3 .2c-.83-.85-.73-2 .27-3l4-4.12 14-14A10.69 10.69 0 0156 26.66z"/></symbol><symbol viewBox="0 0 100 100" id="cloud9" xmlns="http://www.w3.org/2000/svg"><path d="M58.91 23.47a5.35 5.35 0 00-10.17 3.31L62.56 69.3A5.35 5.35 0 0072.73 66L58.91 23.47" fill="#dfa22f"/><path d="M37.5 30.43a5.35 5.35 0 00-10.17 3.3l13.82 42.53A5.35 5.35 0 0051.31 73L37.5 30.43" fill="#3cb187"/><path d="M76.31 58.69A5.35 5.35 0 1073 48.52L30.48 62.34a5.35 5.35 0 003.3 10.17l42.53-13.82" fill="#ce1e5b"/><path d="M39.34 70.7l10.17-3.3-3.31-10.17L36 60.54l3.3 10.16" fill="#392538"/><path d="M60.76 63.74l10.16-3.3-3.3-10.17-10.17 3.31 3.31 10.16" fill="#bb242a"/><path d="M69.35 37.27A5.34 5.34 0 1066 27.11L23.52 40.93a5.35 5.35 0 003.31 10.16l42.52-13.82" fill="#72c5cd"/><path d="M32.38 49.29L42.55 46l-3.3-10.16-10.17 3.3 3.3 10.17" fill="#248c73"/><path d="M53.8 42.33L64 39l-3.3-10.16-10.17 3.3 3.27 10.19" fill="#62803a"/></symbol></svg>