<?xml version="1.0" encoding="utf-8"?>
<!-- Generator: Adobe Illustrator 23.1.0, SVG Export Plug-In . SVG Version: 6.00 Build 0)  -->
<svg version="1.1" id="Слой_1" xmlns="http://www.w3.org/2000/svg" xmlns:xlink="http://www.w3.org/1999/xlink" x="0px" y="0px"
	 viewBox="0 0 75 75" style="enable-background:new 0 0 75 75;" xml:space="preserve">
<style type="text/css">
	.st0{fill-rule:evenodd;clip-rule:evenodd;fill:#FDE8EB;}
	.st1{clip-path:url(#SVGID_2_);}
	.st2{fill-rule:evenodd;clip-rule:evenodd;fill:#FCBC85;}
	.st3{fill-rule:evenodd;clip-rule:evenodd;fill:#F6AD7A;}
	.st4{fill-rule:evenodd;clip-rule:evenodd;fill:#FCBF90;}
	.st5{clip-path:url(#SVGID_4_);}
	.st6{fill-rule:evenodd;clip-rule:evenodd;fill:#E6E6E6;}
	.st7{fill-rule:evenodd;clip-rule:evenodd;fill:#464646;}
	.st8{fill-rule:evenodd;clip-rule:evenodd;fill:#607D8B;}
	.st9{fill-rule:evenodd;clip-rule:evenodd;fill:#86BB86;}
	.st10{fill-rule:evenodd;clip-rule:evenodd;fill:#F6B084;}
	.st11{fill-rule:evenodd;clip-rule:evenodd;fill:#FFFFFF;}
	.st12{fill-rule:evenodd;clip-rule:evenodd;fill:#1A1A1A;}
</style>
<ellipse class="st0" cx="37.28" cy="37.9" rx="37.28" ry="37.01"/>
<g>
	<defs>
		<ellipse id="SVGID_1_" cx="37.07" cy="37.89" rx="37.5" ry="37.01"/>
	</defs>
	<clipPath id="SVGID_2_">
		<use xlink:href="#SVGID_1_"  style="overflow:visible;"/>
	</clipPath>
	<g class="st1">
		<g>
			<rect x="27.54" y="46.13" class="st2" width="19.06" height="16.19"/>
			<path class="st3" d="M27.54,46.13H46.6v4.8c-8.17,1.95-14.73-0.48-19.06-3.16V46.13z"/>
			<g>
				<ellipse class="st4" cx="52.09" cy="34.35" rx="2.79" ry="4.36"/>
				<ellipse class="st4" cx="22.04" cy="34.35" rx="2.79" ry="4.36"/>
			</g>
			<path class="st4" d="M52.46,26.67c0-6.42-4.76-11.12-15.39-11.12c-10.63,0-15.39,4.7-15.39,11.12c0,6.42-1.11,23.33,15.39,23.33
				C53.57,50,52.46,33.09,52.46,26.67z"/>
			<g>
				<defs>
					<path id="SVGID_3_" d="M52.46,26.67c0-6.42-4.76-11.12-15.39-11.12c-10.63,0-15.39,4.7-15.39,11.12
						c0,6.42-1.11,23.33,15.39,23.33C53.57,50,52.46,33.09,52.46,26.67z"/>
				</defs>
				<clipPath id="SVGID_4_">
					<use xlink:href="#SVGID_3_"  style="overflow:visible;"/>
				</clipPath>
				<g class="st5">
					<g>
						<path class="st6" d="M39.72,46.66c1.51,0,2.88-0.61,3.87-1.59c0.99-0.98,1.61-2.33,1.61-3.82c0-0.55-0.23-1.06-0.6-1.42
							c-0.37-0.36-0.88-0.59-1.44-0.59H30.97c-0.56,0-1.07,0.23-1.44,0.59c-0.37,0.36-0.6,0.87-0.6,1.42c0,1.49,0.62,2.84,1.61,3.82
							c0.99,0.98,2.36,1.59,3.87,1.59H39.72L39.72,46.66z M41.8,44.59"/>
						<path class="st7" d="M51.28,39.91l-5.49,0.88c-0.09-0.53-0.35-1.02-0.74-1.4c-0.5-0.49-1.18-0.77-1.89-0.77H30.97
							c-0.71,0-1.38,0.28-1.89,0.77c-0.39,0.39-0.65,0.87-0.74,1.4l-5.49-0.88c0.07,0.22,0.15,0.45,0.24,0.67l5.22,0.83
							c0.04,1.54,0.68,3,1.79,4.1c1.15,1.13,2.69,1.77,4.32,1.77h5.3c1.63,0,3.17-0.64,4.32-1.77c1.11-1.09,1.75-2.56,1.79-4.1
							l5.22-0.83C51.13,40.36,51.21,40.14,51.28,39.91L51.28,39.91z M45.2,41.25c0,1.49-0.62,2.84-1.61,3.82
							c-0.99,0.98-2.36,1.59-3.87,1.59h-5.3c-1.51,0-2.88-0.61-3.87-1.59c-0.99-0.98-1.61-2.33-1.61-3.82c0-0.55,0.23-1.06,0.6-1.42
							c0.37-0.36,0.88-0.59,1.44-0.59h12.19c0.56,0,1.07,0.23,1.44,0.59C44.97,40.19,45.2,40.69,45.2,41.25z"/>
						<path class="st7" d="M31.15,40.49c0-0.09-0.08-0.17-0.17-0.17c-0.1,0-0.17,0.08-0.17,0.17c0,0.09,0.08,0.17,0.17,0.17
							C31.07,40.66,31.15,40.58,31.15,40.49z"/>
						<path class="st7" d="M32.5,40.49c0-0.09-0.08-0.17-0.17-0.17c-0.1,0-0.17,0.08-0.17,0.17c0,0.09,0.08,0.17,0.17,0.17
							C32.42,40.66,32.5,40.58,32.5,40.49z"/>
						<path class="st7" d="M33.85,40.49c0-0.09-0.08-0.17-0.17-0.17c-0.1,0-0.17,0.08-0.17,0.17c0,0.09,0.08,0.17,0.17,0.17
							C33.78,40.66,33.85,40.58,33.85,40.49z"/>
						<path class="st7" d="M35.21,40.49c0-0.09-0.08-0.17-0.17-0.17c-0.1,0-0.17,0.08-0.17,0.17c0,0.09,0.08,0.17,0.17,0.17
							C35.13,40.66,35.21,40.58,35.21,40.49z"/>
						<path class="st7" d="M36.56,40.49c0-0.09-0.08-0.17-0.17-0.17c-0.1,0-0.17,0.08-0.17,0.17c0,0.09,0.08,0.17,0.17,0.17
							C36.48,40.66,36.56,40.58,36.56,40.49z"/>
						<path class="st7" d="M37.91,40.49c0-0.09-0.08-0.17-0.17-0.17c-0.1,0-0.17,0.08-0.17,0.17c0,0.09,0.08,0.17,0.17,0.17
							C37.84,40.66,37.91,40.58,37.91,40.49z"/>
						<path class="st7" d="M39.1,40.66c0.1,0,0.17-0.08,0.17-0.17c0-0.09-0.08-0.17-0.17-0.17c-0.1,0-0.17,0.08-0.17,0.17
							C38.92,40.58,39,40.66,39.1,40.66z"/>
						<path class="st7" d="M39.27,41.47c0-0.09-0.08-0.17-0.17-0.17c-0.1,0-0.17,0.08-0.17,0.17c0,0.09,0.08,0.17,0.17,0.17
							C39.19,41.64,39.27,41.57,39.27,41.47z"/>
						<ellipse class="st7" cx="37.74" cy="41.47" rx="0.17" ry="0.17"/>
						<ellipse class="st7" cx="36.39" cy="41.47" rx="0.17" ry="0.17"/>
						<ellipse class="st7" cx="35.03" cy="41.47" rx="0.17" ry="0.17"/>
						<ellipse class="st7" cx="33.68" cy="41.47" rx="0.17" ry="0.17"/>
						<path class="st7" d="M32.5,41.47c0-0.09-0.08-0.17-0.17-0.17c-0.1,0-0.17,0.08-0.17,0.17c0,0.09,0.08,0.17,0.17,0.17
							C32.42,41.64,32.5,41.57,32.5,41.47z"/>
						<path class="st7" d="M31.15,41.47c0-0.09-0.08-0.17-0.17-0.17c-0.1,0-0.17,0.08-0.17,0.17c0,0.09,0.08,0.17,0.17,0.17
							C31.07,41.64,31.15,41.57,31.15,41.47z"/>
						<ellipse class="st7" cx="30.97" cy="42.46" rx="0.17" ry="0.17"/>
						<path class="st7" d="M32.5,42.46c0-0.09-0.08-0.17-0.17-0.17c-0.1,0-0.17,0.08-0.17,0.17c0,0.09,0.08,0.17,0.17,0.17
							C32.42,42.63,32.5,42.55,32.5,42.46z"/>
						<path class="st7" d="M33.85,42.46c0-0.09-0.08-0.17-0.17-0.17c-0.1,0-0.17,0.08-0.17,0.17c0,0.09,0.08,0.17,0.17,0.17
							C33.78,42.63,33.85,42.55,33.85,42.46z"/>
						<path class="st7" d="M35.21,42.46c0-0.09-0.08-0.17-0.17-0.17c-0.1,0-0.17,0.08-0.17,0.17c0,0.09,0.08,0.17,0.17,0.17
							C35.13,42.63,35.21,42.55,35.21,42.46z"/>
						<path class="st7" d="M36.56,42.46c0-0.09-0.08-0.17-0.17-0.17c-0.1,0-0.17,0.08-0.17,0.17c0,0.09,0.08,0.17,0.17,0.17
							C36.48,42.63,36.56,42.55,36.56,42.46z"/>
						<path class="st7" d="M37.91,42.46c0-0.09-0.08-0.17-0.17-0.17c-0.1,0-0.17,0.08-0.17,0.17c0,0.09,0.08,0.17,0.17,0.17
							C37.84,42.63,37.91,42.55,37.91,42.46z"/>
						<path class="st7" d="M39.27,42.46c0-0.09-0.08-0.17-0.17-0.17c-0.1,0-0.17,0.08-0.17,0.17c0,0.09,0.08,0.17,0.17,0.17
							C39.19,42.63,39.27,42.55,39.27,42.46z"/>
						<path class="st7" d="M40.62,42.46c0-0.09-0.08-0.17-0.17-0.17c-0.1,0-0.17,0.08-0.17,0.17c0,0.09,0.08,0.17,0.17,0.17
							C40.54,42.63,40.62,42.55,40.62,42.46z"/>
						<path class="st7" d="M40.62,40.49c0-0.09-0.08-0.17-0.17-0.17c-0.1,0-0.17,0.08-0.17,0.17c0,0.09,0.08,0.17,0.17,0.17
							C40.54,40.66,40.62,40.58,40.62,40.49z"/>
						<ellipse class="st7" cx="40.45" cy="41.47" rx="0.17" ry="0.17"/>
						<path class="st7" d="M41.98,40.49c0-0.09-0.08-0.17-0.17-0.17c-0.1,0-0.17,0.08-0.17,0.17c0,0.09,0.08,0.17,0.17,0.17
							C41.9,40.66,41.98,40.58,41.98,40.49z"/>
						<path class="st7" d="M41.98,41.47c0-0.09-0.08-0.17-0.17-0.17c-0.1,0-0.17,0.08-0.17,0.17c0,0.09,0.08,0.17,0.17,0.17
							C41.9,41.64,41.98,41.57,41.98,41.47z"/>
						<path class="st7" d="M41.98,42.46c0-0.09-0.08-0.17-0.17-0.17c-0.1,0-0.17,0.08-0.17,0.17c0,0.09,0.08,0.17,0.17,0.17
							C41.9,42.63,41.98,42.55,41.98,42.46z"/>
						<path class="st7" d="M43.33,42.46c0-0.09-0.08-0.17-0.17-0.17c-0.1,0-0.17,0.08-0.17,0.17c0,0.09,0.08,0.17,0.17,0.17
							C43.25,42.63,43.33,42.55,43.33,42.46z"/>
						<ellipse class="st7" cx="43.16" cy="41.47" rx="0.17" ry="0.17"/>
						<path class="st7" d="M43.33,40.49c0-0.09-0.08-0.17-0.17-0.17c-0.1,0-0.17,0.08-0.17,0.17c0,0.09,0.08,0.17,0.17,0.17
							C43.25,40.66,43.33,40.58,43.33,40.49z"/>
						<ellipse class="st7" cx="43.16" cy="43.44" rx="0.17" ry="0.17"/>
						<path class="st7" d="M41.98,43.44c0-0.09-0.08-0.17-0.17-0.17c-0.1,0-0.17,0.08-0.17,0.17c0,0.09,0.08,0.17,0.17,0.17
							C41.9,43.61,41.98,43.53,41.98,43.44z"/>
						<path class="st7" d="M41.98,44.42c0-0.09-0.08-0.17-0.17-0.17c-0.1,0-0.17,0.08-0.17,0.17c0,0.09,0.08,0.17,0.17,0.17
							C41.9,44.59,41.98,44.52,41.98,44.42z"/>
						<ellipse class="st7" cx="40.45" cy="44.42" rx="0.17" ry="0.17"/>
						<ellipse class="st7" cx="40.45" cy="43.44" rx="0.17" ry="0.17"/>
						<path class="st7" d="M39.1,43.61c0.1,0,0.17-0.08,0.17-0.17c0-0.09-0.08-0.17-0.17-0.17c-0.1,0-0.17,0.08-0.17,0.17
							C38.92,43.53,39,43.61,39.1,43.61z"/>
						<ellipse class="st7" cx="37.74" cy="43.44" rx="0.17" ry="0.17"/>
						<path class="st7" d="M36.39,43.61c0.1,0,0.17-0.08,0.17-0.17c0-0.09-0.08-0.17-0.17-0.17c-0.1,0-0.17,0.08-0.17,0.17
							C36.22,43.53,36.29,43.61,36.39,43.61z"/>
						<ellipse class="st7" cx="35.03" cy="43.44" rx="0.17" ry="0.17"/>
						<ellipse class="st7" cx="33.68" cy="43.44" rx="0.17" ry="0.17"/>
						<path class="st7" d="M32.5,43.44c0-0.09-0.08-0.17-0.17-0.17c-0.1,0-0.17,0.08-0.17,0.17c0,0.09,0.08,0.17,0.17,0.17
							C32.42,43.61,32.5,43.53,32.5,43.44z"/>
						<path class="st7" d="M30.97,43.61c0.1,0,0.17-0.08,0.17-0.17c0-0.09-0.08-0.17-0.17-0.17c-0.1,0-0.17,0.08-0.17,0.17
							C30.8,43.53,30.88,43.61,30.97,43.61z"/>
						<path class="st7" d="M32.5,44.42c0-0.09-0.08-0.17-0.17-0.17c-0.1,0-0.17,0.08-0.17,0.17c0,0.09,0.08,0.17,0.17,0.17
							C32.42,44.59,32.5,44.52,32.5,44.42z"/>
						<ellipse class="st7" cx="33.68" cy="44.42" rx="0.17" ry="0.17"/>
						<path class="st7" d="M35.03,44.59c0.1,0,0.17-0.08,0.17-0.17c0-0.09-0.08-0.17-0.17-0.17c-0.1,0-0.17,0.08-0.17,0.17
							C34.86,44.52,34.94,44.59,35.03,44.59z"/>
						<ellipse class="st7" cx="36.39" cy="44.42" rx="0.17" ry="0.17"/>
						<ellipse class="st7" cx="37.74" cy="44.42" rx="0.17" ry="0.17"/>
						<path class="st7" d="M39.27,44.42c0-0.09-0.08-0.17-0.17-0.17c-0.1,0-0.17,0.08-0.17,0.17c0,0.09,0.08,0.17,0.17,0.17
							C39.19,44.59,39.27,44.52,39.27,44.42z"/>
						<path class="st7" d="M40.62,45.41c0-0.09-0.08-0.17-0.17-0.17c-0.1,0-0.17,0.08-0.17,0.17c0,0.09,0.08,0.17,0.17,0.17
							C40.54,45.58,40.62,45.5,40.62,45.41z"/>
						<path class="st7" d="M39.27,45.41c0-0.09-0.08-0.17-0.17-0.17c-0.1,0-0.17,0.08-0.17,0.17c0,0.09,0.08,0.17,0.17,0.17
							C39.19,45.58,39.27,45.5,39.27,45.41z"/>
						<path class="st7" d="M37.91,45.41c0-0.09-0.08-0.17-0.17-0.17c-0.1,0-0.17,0.08-0.17,0.17c0,0.09,0.08,0.17,0.17,0.17
							C37.84,45.58,37.91,45.5,37.91,45.41z"/>
						<path class="st7" d="M36.56,45.41c0-0.09-0.08-0.17-0.17-0.17c-0.1,0-0.17,0.08-0.17,0.17c0,0.09,0.08,0.17,0.17,0.17
							C36.48,45.58,36.56,45.5,36.56,45.41z"/>
						<path class="st7" d="M35.21,45.41c0-0.09-0.08-0.17-0.17-0.17c-0.1,0-0.17,0.08-0.17,0.17c0,0.09,0.08,0.17,0.17,0.17
							C35.13,45.58,35.21,45.5,35.21,45.41z"/>
						<path class="st7" d="M33.85,45.41c0-0.09-0.08-0.17-0.17-0.17c-0.1,0-0.17,0.08-0.17,0.17c0,0.09,0.08,0.17,0.17,0.17
							C33.78,45.58,33.85,45.5,33.85,45.41z"/>
					</g>
				</g>
			</g>
			<path class="st8" d="M26.57,22.15c-0.71,1.88-1.79,3.59-3.11,5.13c-0.93,1.08-1.86,1.28-1.95,3.94
				c-0.01,0.15-0.01,0.31-0.01,0.47v-3.92c0-3.1,0-5.92,0-5.92l0,0c0-10.8,7.38-10.37,15.47-9.48c0,0,0,0,0.01,0
				c0.57,0.06,1.15,0.13,1.73,0.19c6.05,0.66,10.98-1.92,13.45-4.2c2.35,1.66,3.35,6.43,2.49,9.97c-1.84,7.58-2.11,2.29-2.11,13.32
				c0-2.93-0.98-3.22-1.97-4.36c-1.32-1.55-2.41-3.28-3.12-5.17c-1.82,0.74-5.83,1.26-10.49,1.26
				C32.39,23.38,28.43,22.88,26.57,22.15z"/>
			<path class="st9" d="M27.41,51.61C16.31,52.58,7.52,61.85,7.52,73.04v6.63h59.09v-6.63c0-11.2-8.79-20.47-19.89-21.43l-9.65,9.53
				L27.41,51.61z"/>
			<path class="st10" d="M41.38,33.19c0,0.84,0.32,1.59,0.83,2.14c0.51,0.55,1.22,0.89,2.01,0.89c0.78,0,1.49-0.34,2.01-0.89
				c0.51-0.55,0.83-1.3,0.83-2.14c0-0.84-0.32-1.59-0.83-2.14c-0.51-0.55-1.22-0.89-2.01-0.89c-0.78,0-1.49,0.34-2.01,0.89
				C41.69,31.6,41.38,32.36,41.38,33.19z"/>
			<path class="st10" d="M26.49,33.19c0,0.84,0.32,1.59,0.83,2.14c0.51,0.55,1.22,0.89,2.01,0.89c0.78,0,1.49-0.34,2.01-0.89
				c0.51-0.55,0.83-1.3,0.83-2.14c0-0.84-0.32-1.59-0.83-2.14c-0.51-0.55-1.22-0.89-2.01-0.89c-0.78,0-1.49,0.34-2.01,0.89
				C26.81,31.6,26.49,32.36,26.49,33.19z"/>
			<path class="st11" d="M31.33,34.82c0.51-0.55,0.83-1.3,0.83-2.14c0-0.84-0.32-1.59-0.83-2.14c-0.51-0.55-1.22-0.89-2.01-0.89
				c-0.78,0-1.49,0.34-2.01,0.89c-0.51,0.55-0.83,1.3-0.83,2.14c0,0.84,0.32,1.59,0.83,2.14c0.51,0.55,1.22,0.89,2.01,0.89
				C30.11,35.71,30.82,35.37,31.33,34.82z"/>
			<path class="st11" d="M41.38,32.68c0,0.84,0.32,1.59,0.83,2.14c0.51,0.55,1.22,0.89,2.01,0.89c0.78,0,1.49-0.34,2.01-0.89
				c0.51-0.55,0.83-1.3,0.83-2.14c0-0.84-0.32-1.59-0.83-2.14C45.71,30,45,29.66,44.21,29.66c-0.78,0-1.49,0.34-2.01,0.89
				C41.69,31.09,41.38,31.85,41.38,32.68z"/>
			<path class="st12" d="M43.35,32.68c0,0.26,0.1,0.49,0.25,0.65c0.16,0.17,0.37,0.27,0.61,0.27c0.24,0,0.46-0.1,0.61-0.27
				c0.16-0.17,0.25-0.4,0.25-0.65c0-0.26-0.1-0.49-0.25-0.65c-0.16-0.17-0.37-0.27-0.61-0.27c-0.24,0-0.46,0.1-0.61,0.27
				C43.44,32.2,43.35,32.43,43.35,32.68z"/>
			<path class="st12" d="M28.46,32.68c0,0.26,0.1,0.49,0.25,0.65c0.16,0.17,0.37,0.27,0.61,0.27c0.24,0,0.46-0.1,0.61-0.27
				c0.16-0.17,0.25-0.4,0.25-0.65c0-0.26-0.1-0.49-0.25-0.65c-0.16-0.17-0.37-0.27-0.61-0.27c-0.24,0-0.46,0.1-0.61,0.27
				C28.56,32.2,28.46,32.43,28.46,32.68z"/>
			<path class="st11" d="M44.39,32.54c0,0.05,0.02,0.1,0.05,0.14c0.03,0.04,0.08,0.06,0.13,0.06c0.05,0,0.1-0.02,0.13-0.06
				c0.03-0.04,0.05-0.08,0.05-0.14c0-0.05-0.02-0.1-0.05-0.14c-0.03-0.04-0.08-0.06-0.13-0.06c-0.05,0-0.1,0.02-0.13,0.06
				C44.41,32.44,44.39,32.49,44.39,32.54z"/>
			<path class="st11" d="M28.83,32.53c0,0.05,0.02,0.1,0.05,0.14c0.03,0.04,0.08,0.06,0.13,0.06c0.05,0,0.1-0.02,0.13-0.06
				c0.03-0.04,0.05-0.08,0.05-0.14c0-0.05-0.02-0.1-0.05-0.14c-0.03-0.04-0.08-0.06-0.13-0.06c-0.05,0-0.1,0.02-0.13,0.06
				C28.85,32.43,28.83,32.48,28.83,32.53z"/>
		</g>
	</g>
</g>
</svg>
