<?xml version="1.0" encoding="utf-8"?>
<!-- Generator: Adobe Illustrator 23.1.0, SVG Export Plug-In . SVG Version: 6.00 Build 0)  -->
<svg version="1.1" id="Слой_1" xmlns="http://www.w3.org/2000/svg" xmlns:xlink="http://www.w3.org/1999/xlink" x="0px" y="0px"
	 viewBox="0 0 250 250" style="enable-background:new 0 0 250 250;" xml:space="preserve">
<style type="text/css">
	.st0{fill:#603813;}
	.st1{fill:#A44740;}
	.st2{fill:#FFAA9C;}
	.st3{fill:#FFA898;}
	.st4{fill:#C7B299;}
	.st5{fill:#223B77;}
</style>
<g>
	<g>
		<path class="st0" d="M110.63,29.01c-0.83,1.75-3.82,0.86-4.13,2.97c-0.37,2.56-1.3,4.68-2.54,6.97
			c-2.77,5.16-6.42,9.53-10.38,13.88c-3.83,4.22-8.48,8.55-9.02,14.42c-0.48,5.2,4.46,7.49,4.39,12.32
			c-0.06,4.33-4.25,8.64-6.19,12.5c-2.08,4.15-3.28,9.21-2.58,13.9c1.64,11.08,15.09,11.05,23.46,12.18
			c9.42,1.27,18.11,7.79,27.85,4.79c2.47-0.76,4.25-2.54,6.7-3.47c2.58-0.97,5.37-1.31,8.07-1.6c4.72-0.51,9.26-0.55,14.04-0.76
			c6.2-0.27,11-1.69,13.66-7.92c1.62-3.77,2.06-11.17,0.38-15.07c-1.78-4.14-9.24-8.44-6.82-13.83c1.25-2.8,4.96-3.78,5.68-7.45
			c0.31-1.56,0.23-3.85-0.01-5.39c-1.97-12.76-15.83-18.52-21.26-29.17c-2.24-4.39-4.1-9.67-8.82-11.93
			c-7.31-3.5-15.99-3.84-23.72-1.45C116.29,25.87,113.65,27.87,110.63,29.01"/>
	</g>
	<polygon class="st1" points="87.91,170.16 64.63,170.16 101.97,198.93 137.94,201.22 186.22,169.09 158.59,168.33 	"/>
	<path class="st2" d="M158.59,168.34c-19.9,19.27-43.75,18.41-70.67,1.82l17.54-25.02c1.31-2.71,1.92-5.61,1.73-8.54
		c-0.13-2.06-0.66-4.11-1.58-6.07l-0.7-1.48l-4.58-9.73c-1.47-3.15-2.22-6.49-2.22-9.85c0-2.85,0.54-5.68,1.6-8.41
		c1.63-4.16,2.23-8.6,1.75-12.98l-0.94-8.4l11.43-1.13l2.47-0.24c3.17-0.65,4.66-1.71,5.35-4.49c0-0.01,0-0.02,0-0.02
		c0.42-2.65,0.13-4.77-0.83-6.35l13.92-2.94l0.51,5c0.18,1.79,0.29,3.6,0.37,5.38c0,0.01,0,0.01,0,0.01
		c0.01,1.31,1.13,2.41,2.6,2.52l3.03,0.37l9.94,1.23c2.99,4.18,1.37,14.13,5.28,21.09c3.99,7.13,1.2,16.5-3.01,23.81l-4.4,7.6
		l-3.64,6.27c-0.53,1.26-0.71,2.78-0.71,4.38c0,0.75,0.04,1.52,0.11,2.28c0.12,1.35,0.6,2.65,1.42,3.79L158.59,168.34z"/>
	<g>
		<path class="st3" d="M189.66,169.45c-3.75-0.75-7.47-0.3-10.69,1.05c-21.57,13.43-50.99,22.51-83.75,31.67l-12.68,2.04
			c-4.18,0.67-7.77,3.18-9.22,6.71c-0.01,0.02-0.02,0.05-0.02,0.07l-0.71,3.61c-1.2,6.09,6.74,10.51,12.24,6.68
			c0.13-0.09,0.25-0.17,0.34-0.27l12.24-10.05c33.1-2.2,63.47-6.3,90.37-12.84c0.55-0.06,1.1-0.13,1.63-0.23
			c6.1-1.14,11.21-5.29,12.68-11.02C204.12,179.04,198.56,171.22,189.66,169.45z"/>
		<path class="st3" d="M174.9,213.67l-0.71-3.61c-0.01-0.02-0.01-0.05-0.02-0.07c-1.46-3.53-5.04-6.04-9.22-6.71l-10.84-1.74
			l0.02-0.07c-32.17-8.3-61.16-18.49-84.68-31.92c-3.22-1.35-6.95-1.8-10.69-1.05c-8.89,1.79-14.46,9.59-12.45,17.44
			c1.47,5.73,6.58,9.88,12.68,11.02c0.54,0.1,1.08,0.18,1.63,0.23c22.44,5.88,54.75,9.54,89.27,12.72l12.42,10.19
			c0.1,0.08,0.22,0.17,0.34,0.27C168.16,224.18,176.1,219.75,174.9,213.67z"/>
	</g>
	<path class="st3" d="M100.47,79.7l1.07-0.14c-3.53-0.3-7.84,1.86-8.72,4.89l-9.65,33.34c-2.67,9.24-7.23,17.98-13.44,25.79
		l-16.13,20.3l-12.63,1.82c0,0-1.29,1.87,3.1,1.84c0,0,9.71,1.57,2.79,3.17c0,0-3.15,1.14-6.06-2.05c0,0-2.66-3.48-3.17,2.25
		c0,0-1.11,6.41,9.24,6.63c0,0,6.59-1.74,12.85-9.63c25.54-16.25,41.79-42.74,47.23-81.1C107.42,83.26,104.5,80.05,100.47,79.7z"/>
	<path class="st3" d="M148.64,79.02L148.64,79.02c3.53-0.3,6.77,1.72,7.66,4.75l9.65,33.34c2.67,9.24,7.23,17.98,13.44,25.79
		l16.13,20.3l12.63,1.82c0,0,1.29,1.87-3.1,1.84c0,0-9.71,1.57-2.79,3.17c0,0,3.15,1.14,6.06-2.05c0,0,2.66-3.48,3.17,2.25
		c0,0,1.11,6.41-9.24,6.63c0,0-6.59-1.74-12.85-9.63c-25.54-16.25-41.79-42.74-47.23-81.1C141.68,82.57,144.6,79.37,148.64,79.02z"
		/>
	<path class="st4" d="M158.59,168.34c-19.9,19.27-43.75,18.41-70.67,1.82l17.54-25.02c1.31-2.71,1.92-5.61,1.73-8.54
		c-0.13-2.06-0.66-4.11-1.58-6.07l-0.7-1.48l-4.58-9.73c-1.47-3.15-2.22-6.49-2.22-9.85c0-2.85,0.54-5.68,1.6-8.41
		c1.63-4.16,2.23-8.6,1.75-12.98l-0.94-8.4l11.43-1.13l6.82,12.83c2.99,5.62,12.15,5.37,14.73-0.43l5.88-13.17l9.94,1.23
		c2.99,4.18,1.37,14.13,5.28,21.09c3.99,7.13,1.2,16.5-3.01,23.81l-4.4,7.6l-3.64,6.27c-0.53,1.26-0.71,2.78-0.71,4.38
		c0,0.75,0.04,1.52,0.11,2.28c0.12,1.35,0.6,2.65,1.42,3.79L158.59,168.34z"/>
	<g>
		<path class="st3" d="M148.83,41.84c-0.87-0.07-1.86,0.23-2.83,0.78c-1.29-5.58-4.36-11.53-8.16-15.62
			c-1.59-2.03-3.43-3.35-5.41-4.15c-1.08-0.51-2.17-0.84-3.26-0.93c-0.75-0.06-1.49-0.09-2.22-0.08c-0.74-0.01-1.47,0.01-2.22,0.08
			c-1.09,0.09-2.18,0.43-3.26,0.93c-2,0.8-3.82,2.12-5.41,4.15c-3.8,4.09-6.88,10.03-8.16,15.62c-0.97-0.55-1.96-0.85-2.83-0.78
			c-2.92,0.24-3.87,4.64-3.06,7.99c1.02,4.23,4.37,5.57,7.47,6.41c1.42,2.8,3.44,5.54,5.77,7.84c2.44,2.73,5.57,4.76,9.15,5.59
			c0.11,0.02,0.21,0.05,0.32,0.07c0.21,0.05,0.42,0.1,0.62,0.14c0.15,0.02,0.28,0.02,0.43,0.03c0.12,0.01,0.25,0.02,0.36,0.03
			c0.28,0.02,0.55,0.03,0.83,0.03c0.28,0,0.55-0.01,0.83-0.03c0.12-0.01,0.25-0.02,0.36-0.03c0.15-0.01,0.28-0.01,0.43-0.03
			c0.21-0.03,0.42-0.09,0.62-0.14c0.11-0.02,0.21-0.05,0.32-0.07c3.58-0.83,6.73-2.86,9.16-5.59c2.33-2.29,4.34-5.04,5.76-7.84
			c3.11-0.84,6.46-2.17,7.47-6.41C152.7,46.49,151.75,42.07,148.83,41.84z"/>
		<g>
			<path class="st0" d="M130.66,21.15c2.58,4.69-0.06,10.46-4.45,13.65c-4.02,2.9-9.32,4.26-12.92,7.6
				c-3.25,3.01-4.69,7.23-6.03,11.28c-0.71-3.26-1.42-6.51-2.14-9.77c-0.64-2.93-1.29-5.91-0.88-8.84
				c0.71-5.14,4.51-9.38,8.58-12.93c1.68-1.46,3.44-2.87,5.51-3.84c7.86-3.7,20.9-1.88,26.46,4.66c5.56,6.53,6.74,13.08,1.46,33.28
				c0.75-16.72-11.26-14.2-14.74-31.35"/>
		</g>
		<g>
			<g>
				<g>
					<path class="st5" d="M126.06,56.22c-0.02,0-0.04-0.01-0.06-0.02c-0.5-0.37-1.16-1-1.13-2.33c0.05-1.83,1.54-3.15,2.18-3.63
						c0.13-0.09,0.27,0.09,0.29,0.44s-0.06,0.7-0.2,0.81c-0.91,0.68-1.76,1.82-1.78,2.36c0,0,0.02,0.51,0.81,1.08
						c0.13,0.09,0.2,0.45,0.15,0.8C126.28,56.04,126.17,56.24,126.06,56.22z"/>
				</g>
			</g>
			<g>
				<path class="st5" d="M135.94,48.89c-0.66,0-1.29-0.05-1.78-0.14c-0.53-0.1-0.85-0.24-0.85-0.39c0-0.08,0.34-0.15,0.76-0.15
					c0.39,0,0.77,0.07,0.77,0.15c0,0.07,0.15,0.14,0.39,0.18c0.2,0.03,0.45,0.06,0.71,0.06l0,0c0.6,0,1.09-0.12,1.09-0.25
					c0-0.08,0.34-0.15,0.76-0.15c0.47,0,0.76,0.07,0.77,0.15c0.01,0.3-1.16,0.54-2.61,0.54C135.96,48.89,135.96,48.89,135.94,48.89z
					"/>
			</g>
			<g>
				<path class="st5" d="M118.56,48.87c-1.59,0-2.89-0.24-2.9-0.53c0-0.08,0.37-0.15,0.83-0.15l0,0c0.47,0,0.85,0.07,0.85,0.15
					c0,0.14,0.55,0.24,1.21,0.24c0,0,0,0,0.01,0c0.29,0,0.56-0.02,0.78-0.06c0.27-0.05,0.43-0.12,0.42-0.18
					c0-0.08,0.37-0.15,0.83-0.15c0.39,0,0.85,0.07,0.85,0.15c0,0.15-0.33,0.29-0.91,0.39c-0.54,0.09-1.24,0.15-1.97,0.15
					C118.57,48.87,118.57,48.87,118.56,48.87z"/>
			</g>
			<g>
				<g>
					<path class="st5" d="M139.14,44.87c-0.22,0.01-0.44-0.02-0.55-0.09c-1.67-1.13-4.8-0.55-4.94-0.53
						c-0.31,0.06-0.65,0.02-0.78-0.08c-0.12-0.1,0.01-0.23,0.32-0.29c1.48-0.28,4.77-0.5,6.48,0.67c0.15,0.1,0.02,0.23-0.28,0.29
						C139.3,44.86,139.21,44.87,139.14,44.87z"/>
				</g>
			</g>
			<g>
				<g>
					<path class="st5" d="M120.74,44.56c-0.2,0.05-0.39,0.07-0.49,0.05c-1.54-0.27-4.24,0.54-4.35,0.58
						c-0.26,0.08-0.56,0.12-0.69,0.09s0-0.12,0.26-0.2c1.27-0.39,4.12-1.05,5.71-0.77c0.13,0.02,0.04,0.1-0.22,0.18
						C120.89,44.51,120.81,44.54,120.74,44.56z"/>
				</g>
			</g>
			<g>
				<path class="st5" d="M125.41,63.4c-1.73-0.09-3.33-0.54-4.4-1.23c-0.22-0.14-0.21-0.35,0.04-0.46c0.23-0.12,0.61-0.09,0.82,0.05
					c0.87,0.55,2.17,0.91,3.59,0.99c2.24,0.13,4.25-0.5,4.75-1.46c0.09-0.17,0.4-0.25,0.72-0.2c0.31,0.06,0.49,0.24,0.4,0.41
					C130.68,62.76,128.19,63.55,125.41,63.4z"/>
			</g>
		</g>
	</g>
</g>
</svg>
