<?xml version="1.0" encoding="utf-8"?>
<!-- Generator: Adobe Illustrator 23.1.0, SVG Export Plug-In . SVG Version: 6.00 Build 0)  -->
<svg version="1.1" id="Слой_1" xmlns="http://www.w3.org/2000/svg" xmlns:xlink="http://www.w3.org/1999/xlink" x="0px" y="0px"
	 viewBox="0 0 250 250" style="enable-background:new 0 0 250 250;" xml:space="preserve">
<style type="text/css">
	.st0{fill:#C69C6D;}
	.st1{fill:#FFA898;}
	.st2{fill:#223B77;}
	.st3{fill:#FF8E79;}
	.st4{fill:#4C3221;}
	.st5{fill:#534741;}
</style>
<g>
	<path class="st0" d="M51.26,182.53c-1.89,4.29-2.77,7.78-3.05,10.59c0.65,0.23,1.36,0.42,2.1,0.62
		c67.37,19.24,104.9,4.69,117.53-35.38l-26-6.97c0,0-12.48,5.1-12.91,19.87C103.88,186.99,77.87,189.09,51.26,182.53z"/>
	<path class="st1" d="M19.95,188.71c11.92-2.12,16.63-0.51,21.52,1.66c0.51-4.29,2.19-7.45,3.68-9.49
		c-0.83-0.23-1.65-0.48-2.48-0.74c0,0-3.73-5.9-10.94,0c0,0-9.98-1.83-13.9,4.74C16.79,186.6,18.11,189.05,19.95,188.71z"/>
	<path class="st0" d="M167.84,158.39c28.59,5.39,55.47,11.53,60.07,27.42c-0.88,10.71-8.56,11.23-17.13,10.37l-61.29-13.74
		l9.51-26.42L167.84,158.39z"/>
	<path class="st0" d="M174.44,190.63v6.99c2.06,0.14,4.1,0.28,6.1,0.4c27.63,1.63,48.77,0.13,47.36-12.21
		c-3.69-15.49-24.17-8.56-47.36,2C178.54,188.72,176.49,189.67,174.44,190.63z"/>
	<path class="st1" d="M174.44,197.62h-18.83c-1.65,0-2.43-2.25-1.21-3.47c2.18-2.14,5.74-3.11,10.84-2.8c0,0,2.41-4.35,9.2-0.72
		V197.62z"/>
	<path class="st2" d="M41.48,190.38L41.48,190.38c2.03,0.9,4.1,1.89,6.73,2.75c0.29-2.81,1.18-6.32,3.05-10.59l-6.1-1.65
		C43.67,182.93,41.98,186.09,41.48,190.38z"/>
	<path class="st2" d="M174.44,190.63v6.99c2.06,0.14,4.1,0.28,6.1,0.4V187.8C178.54,188.72,176.49,189.67,174.44,190.63z"/>
	<g>
		<path class="st3" d="M146.98,61.01c1.08,2.11,2.1,4.26,3.05,6.44c2.85,6.37,5.2,12.83,7.11,18.72c1.23,3.81,1.19,7.46,0.76,10.32
			c-0.71,4.73-4.95,7.97-9.13,6.64c-2.98-0.95-5.94-3.88-6.95-11.36l-4.63-23.68l-1.99-5.9l-0.86-2.53l-17.16-22.41l-0.21,0.13
			c0,0-0.9-1.41-5.64-2.43c0,0-5.03,0.3-3.39-1.5l3.29-0.47c0.51-0.08,0.91-0.59,0.86-1.16c-0.03-0.6-0.22-1.45-0.79-2.44
			c-0.55-0.97-0.93-2.05-1.19-3.16c-1.58-6.81,1.34-5.63,6.01-1.36c0.63,0.66,1.21,1.38,1.76,2.12c1.51,2.06,3.17,4.8,3.47,7.16
			c7.6,3.62,15.46,9.74,20.83,18.31C143.91,55.22,145.51,58.08,146.98,61.01z"/>
	</g>
	<g>
		<g>
			<path class="st1" d="M143.14,90.33c0,0,3.55-6.76,1.9-11.19c0,0-10.37-3.4-13.3-16.44c-0.7-3.1-0.49-6.07,0.75-7.91
				c2.93-4.38,8.2-8.76,17.6,1.01c0.01,0,5.87-1.22,2.93,2.85c3.59,3.99,4.96,10.52,2.39,15.15c-0.52,0.96-1.32,1.71-2.28,2.3
				c1.22,4.25,2.33,11.19,2.33,11.19L143.14,90.33z"/>
			<path class="st2" d="M145.4,58.76c0.54,0.47,1.28,0.41,1.66-0.12c0.38-0.54,0.27-1.34-0.27-1.81c-0.54-0.47-1.28-0.41-1.66,0.12
				C144.75,57.49,144.87,58.29,145.4,58.76z"/>
			<g>
				<path class="st2" d="M142.58,58.54c0.09-0.12,0.13-0.3,0.06-0.45c-0.99-2.44,0.92-3.56,1-3.6c0.19-0.11,0.26-0.36,0.16-0.56
					c-0.09-0.2-0.33-0.29-0.51-0.18c-0.92,0.51-2.38,2.17-1.35,4.69c0.08,0.22,0.31,0.31,0.5,0.22
					C142.51,58.63,142.55,58.59,142.58,58.54z"/>
			</g>
			<g>
				<path class="st2" d="M154.07,62.45c-0.14-0.05-0.29,0-0.4,0.13c-1.57,2.03-3.31,0.62-3.39,0.55c-0.16-0.14-0.41-0.11-0.54,0.08
					c-0.13,0.18-0.09,0.45,0.07,0.59c0.81,0.69,2.81,1.44,4.44-0.68c0.14-0.18,0.12-0.44-0.05-0.6
					C154.18,62.48,154.12,62.46,154.07,62.45z"/>
			</g>
		</g>
		<g>
			<path class="st4" d="M145.47,71.03c-1.04,0.35-2.07,0.41-2.9-0.07c-2.19-1.26-3.28-3.72-2.43-5.52c0.41-0.87,1.21-1.42,2.17-1.6
				c-0.34-0.14-0.68-0.32-0.98-0.57c-0.93-0.77-1.46-2.01-1.86-3.22c-0.41-1.22-0.72-2.53-0.52-3.79c0.41-2.68,2.92-4.35,5.32-4.92
				c0.69-0.16,1.47-0.31,1.89-0.93c0.34-0.5,0.34-1.23,0.01-1.72c-0.28-0.43-0.77-0.66-1.23-0.61c0.88-0.24,1.61-1.13,1.72-2.13
				c0.1-1.1-0.52-2.25-1.47-2.63c-1.4-0.57-2.88,0.42-4.09,1.38c-0.47,0.37-1.08,1.1-1.75,1.88c-2.62,3.1-5.67,4.93-9.37,5.97
				c-5.16,1.46-6.19,9.6-5.75,14.28c0.28,3.03,1.39,6.25,2.99,8.73c2.13,3.27,5.75,4.88,9.21,5.71c1.85,0.44,6.59,1.6,9.98-1.51
				C149.49,76.9,145.83,70.9,145.47,71.03z"/>
		</g>
	</g>
	<path class="st5" d="M167.02,158.38c0,0,11.26-55.36-5.37-71.38c-4.3-4.13-8.69-3.28-12.95-2.3c-5.04,1.16-8.74,3.51-10.57,6.05
		c-4.34,6.03-8.94,14.2-2.85,31.05c0.43,1.19,0.91,2.35,1.39,3.5c1.33,3.21,1.72,11.17,2.15,27.63
		C146.1,163.27,158.72,161.77,167.02,158.38z"/>
	<g>
		<path class="st1" d="M138.45,63.43c1.12,2.08,2.18,4.21,3.17,6.37c2.97,6.31,5.45,12.71,7.47,18.55
			c1.32,3.78,1.34,7.42,0.95,10.31c-0.62,4.75-4.8,8.08-9,6.85c-2.99-0.87-6.01-3.73-7.16-11.19l-5.08-23.57l-2.11-5.85l-0.91-2.5
			l-17.59-22l-0.21,0.14c0,0-0.92-1.39-5.68-2.3c0,0-5.03,0.42-3.41-1.41l3.28-0.55c0.51-0.1,0.9-0.61,0.84-1.19
			c-0.05-0.6-0.26-1.44-0.84-2.42c-0.57-0.96-0.97-2.03-1.25-3.12c-1.71-6.76,1.23-5.65,5.97-1.5c0.64,0.65,1.23,1.34,1.8,2.08
			c1.55,2.02,3.25,4.72,3.6,7.07c7.67,3.45,15.65,9.38,21.18,17.84C135.27,57.71,136.91,60.53,138.45,63.43z"/>
	</g>
</g>
</svg>
