<?xml version="1.0" encoding="utf-8"?>
<!-- Generator: Adobe Illustrator 23.1.0, SVG Export Plug-In . SVG Version: 6.00 Build 0)  -->
<svg version="1.1" id="Слой_1" xmlns="http://www.w3.org/2000/svg" xmlns:xlink="http://www.w3.org/1999/xlink" x="0px" y="0px"
	 viewBox="0 0 250 250" style="enable-background:new 0 0 250 250;" xml:space="preserve">
<style type="text/css">
	.st0{fill:#F9E691;}
	.st1{fill:#A44740;}
	.st2{fill:#FF8E79;}
	.st3{fill:#FFAA9C;}
	.st4{fill:#223B77;}
	.st5{fill:#AD645D;}
</style>
<g>
	<path class="st0" d="M139,103.16c-0.79,1.96-1.67,3.89-2.63,5.78c-1.42,2.8-4.8,10.39-6.36,21.88
		c-7.36,9.33-20.72,23.76-27.61,20.78c0,0,0.98-58.29,17.04-72.77c4.15-3.73,7.89-3,11.51-2.14c4.28,1.01,7.26,3.1,8.6,5.35
		C142.4,86.83,143.68,91.47,139,103.16z"/>
	<g>
		<path class="st1" d="M132.21,73.03c-2.79-2.46-7.47-4.53-8.31-8.89c-0.74-3.82,1.47-8.34,3.95-11.52
			c2.42-3.11,6.79-5.98,10.65-5.48c1.73,0.23,4,0.9,5.31,1.97c1.67,1.38,1.74,2.62,0.99,4.73c-1.38,3.86-3.25,8.3-5.38,11.87
			c-1.97,3.3-4.62,5.67-7.3,8.37c-0.24-0.16-0.33-0.4-0.41-0.65L132.21,73.03z"/>
	</g>
	<polygon class="st2" points="128.97,65.93 126.95,77.75 134.15,78.4 135.8,71.42 	"/>
	<g>
		<g>
			<path class="st3" d="M125.83,62.09c-0.05-1.89,0.92-4.3,2.45-4.33c0.45-0.01,0.93,0.2,1.37,0.54c2.16-5.2,7.11-10.82,10.91-10.88
				c4.98-0.08,8.73,2.71,6.91,15.86c-0.72,5.2-5.2,10.42-10.18,10.94c-3.74,0.39-7.17-3.92-8.32-8.3
				C127.47,65.35,125.89,64.48,125.83,62.09z"/>
			<g>
				<path class="st4" d="M137.77,62.3c-0.06,0.59,0.31,1.05,0.83,1.04c0.52-0.01,0.99-0.5,1.06-1.08c0.06-0.59-0.31-1.05-0.83-1.04
					C138.31,61.23,137.84,61.71,137.77,62.3z"/>
				<path class="st4" d="M144.54,61.9c-0.06,0.59,0.31,1.05,0.83,1.04c0.52-0.01,0.99-0.5,1.06-1.08c0.06-0.59-0.31-1.05-0.83-1.04
					C145.08,60.83,144.6,61.31,144.54,61.9z"/>
				<g>
					<g>
						<path class="st4" d="M134.65,60.48c0.12,0,0.25-0.07,0.32-0.2c1.07-1.91,2.7-1.27,2.77-1.24c0.16,0.06,0.35-0.02,0.44-0.19
							c0.08-0.17,0.03-0.36-0.13-0.42c-0.77-0.32-2.52-0.39-3.63,1.59c-0.09,0.17-0.04,0.36,0.11,0.43
							C134.56,60.48,134.6,60.48,134.65,60.48z"/>
					</g>
				</g>
				<g>
					<g>
						<path class="st4" d="M143.93,58.22c0.07,0.07,0.18,0.09,0.28,0.04c1.65-0.75,2.22,0.61,2.24,0.67
							c0.05,0.13,0.21,0.18,0.35,0.11c0.14-0.07,0.21-0.24,0.16-0.38c-0.26-0.66-1.21-1.69-2.92-0.91
							c-0.14,0.07-0.22,0.23-0.17,0.37C143.89,58.16,143.91,58.2,143.93,58.22z"/>
					</g>
				</g>
				<g>
					<g>
						<path class="st4" d="M139.93,68.64c-0.03-0.1-0.11-0.17-0.22-0.17c-1.7-0.08-1.53-1.64-1.52-1.71
							c0.02-0.15-0.09-0.27-0.24-0.27c-0.15,0-0.28,0.13-0.3,0.28c-0.09,0.74,0.21,2.17,1.97,2.25c0.15,0.01,0.29-0.11,0.31-0.26
							C139.94,68.72,139.94,68.68,139.93,68.64z"/>
					</g>
				</g>
				<g>
					<path class="st4" d="M143.38,68.09c0.23-0.03,0.44-0.13,0.62-0.28c0.59-0.48,0.72-1.39,0.36-2.44l-0.83-3.55
						c-0.03-0.14-0.17-0.21-0.31-0.16c-0.14,0.05-0.23,0.2-0.2,0.34l0.84,3.57c0.34,0.99,0.14,1.59-0.15,1.83
						c-0.3,0.25-0.77,0.2-1.2-0.11c-0.11-0.08-0.28-0.05-0.38,0.07c-0.09,0.12-0.1,0.27,0.01,0.35
						C142.55,68.03,142.98,68.15,143.38,68.09z"/>
				</g>
			</g>
		</g>
		<g>
			<path class="st1" d="M140.63,47.35c1.56-0.54,4,0.2,5.6,0.45c1.8,0.28,3.59,0.41,5.3,0.94c1.07,0.34,3.07,0.93,2.8,2.21
				c-0.32,1.48-2.82,1.85-3.95,1.87c-0.26,1.06,0.28,2.02,0.5,3.04c0,0.01,0,0.02,0.01,0.03c0.25,1.1-1.2,1.97-1.88,1.13
				c-0.58-0.71-1.11-1.45-1.85-2.02c-2.38,2.83-5.82,3.38-9.22,3.5c0.65-0.85,1.4-1.84,1.85-2.6c-1.55,0.96-3.1,1.52-4.84,1.81
				c-1.93,0.32-1.89,0.17-2.22,2.27c-0.37,2.35-0.87,5.78-2.48,7.83c0.32-2.91-0.18-5.17-1.02-7.83c-0.81-2.55-1.67-4.58,0.45-7.11
				c3.03-3.63,7.6-6.74,12.14-5.74L140.63,47.35z"/>
		</g>
	</g>
	<path class="st3" d="M132.91,80.88c1.25,0.96,2.1,2.27,2.41,3.7c1.36,6.42,3.09,14.98,3.09,14.98c1.48,8.85,7.42,19.26,15.44,30.38
		c1.74,0.82,3.57,2.13,4.46,2.97c1.65,1.57,1.72,3.97,0.14,5.35c-1.58,1.38-4.2,1.23-5.85-0.34c-1.26-1.2-2.92-4.65-2.93-6.83
		c-5.56-4.95-10.28-10.33-15.92-19.43c-4.59-7.4-11.23-26.18-10.94-27.84l0,0C123.52,79.53,129.07,77.93,132.91,80.88L132.91,80.88z
		"/>
</g>
<g>
	<g>
		<path class="st5" d="M20.75,154.56c0.25-0.19,0.41-0.48,0.47-0.81c0.81-4.68,2.81-8.79,6.03-12.32l27.79,3.61
			c5.23,0.55,23.7,4.5,39.5,8.01c-0.42-5.26,0.43-11.51,1.25-15.93l-23.64,1.09c-3.54-6.76-22.08-5.13-44.45-1.36l-0.31,0.13
			c-0.28-0.24-2.51-1.17-4.14-1.84c-1.05-0.43-2.24-0.14-3.03,0.73l-0.57,0.63c-0.88,0.98-1.05,2.47-0.4,3.64
			c0.64,1.15,0.7,2.57,0.16,3.78c-0.5,1.12-0.75,2.35-0.71,3.6l0.16,6.03C18.87,154.59,19.97,155.17,20.75,154.56z"/>
		<path class="st4" d="M118.97,158.63c0,0-8.96-2.07-20.26-4.6c-0.13-3.54,0-9.25,1.24-17.12l17.46-0.81L118.97,158.63z"/>
		<path class="st0" d="M98.72,154.04c-1.46-0.32-2.95-0.65-4.46-0.99c-0.42-5.26,0.43-11.51,1.25-15.93l4.46-0.2
			C98.72,144.79,98.59,150.5,98.72,154.04z"/>
	</g>
	<path class="st4" d="M147.75,153.19c-3.33,1.76-6.93,3.19-10.86,4.15c-8.7,2.14-17.35,1.49-25.31-0.7
		c-0.06-0.02-0.11-0.03-0.17-0.05c-2.61-7.42-2.15-14.36,3.16-20.49c0.07-0.02,0.14-0.05,0.22-0.08c0.07-0.02,0.15-0.05,0.22-0.08
		c8.98-3.66,15.53-2.23,19.39-0.85c0.32,0.11,0.64,0.21,0.96,0.29c0.47,0.12,0.96,0.21,1.43,0.26c-0.53-0.04-1.06-0.12-1.58-0.26
		C133.64,143.87,139.55,149.31,147.75,153.19z"/>
	<path class="st5" d="M165.44,158.34l-3.01-1.63c-2.16,0.09-4.33,0.18-6.5,0.25c-0.63,0.02-1.25,0.04-1.88,0.05
		c-0.64,0.01-1.26,0.02-1.89,0.03c-6.05,0.09-12.1-0.16-18.07-1.39c-0.03-0.01-0.07-0.01-0.1-0.02c-0.01-0.03-0.02-0.06-0.02-0.08
		c0.01,0.01,0.01,0,0.02,0.01c-0.06-0.23-0.12-0.44-0.18-0.67c-0.01-0.03-0.02-0.07-0.03-0.11c-1.58-6.6-1.21-12.52,1.37-16.9
		c0.08-0.14,0.17-0.28,0.25-0.42c0.01-0.01,0.01-0.03,0.03-0.04c0.08-0.14,0.18-0.28,0.28-0.42c0.1-0.15,0.21-0.3,0.32-0.44
		c0.11-0.16,0.23-0.31,0.35-0.45c0.04,0.03,0.08,0.06,0.12,0.09c2.74,1.98,6.53,2.88,10.8,2.74c0.4-0.01,0.8-0.03,1.21-0.07
		c0.94-0.07,1.89-0.19,2.86-0.35c6.6-1.13,13.85-4.47,19.91-9.86l4.63,5.27l6.73,7.67l2.59,2.95l-6.23,8.95
		C175.87,157.94,170.59,161.13,165.44,158.34z"/>
	<g>
		<g>
			<g>
				<path class="st5" d="M186.79,125.89c2.33-3.4,5.77-5.82,9.74-6.5c2.57-0.44,4.99-0.17,6.51,1.12c3.6,3.05,5.94,9.72-2.12,18.34
					c0,0.01,2.34,4.53-1.64,2.23c-4.88,3.93-8.78,3.52-11.93,0.66c-1.69-1.53-2.46-5.15-2.55-8.42c-0.08-2.79,0.23-4.88,1.73-7.07
					L186.79,125.89z"/>
				<g>
					<path class="st4" d="M194.76,138.72c0.04,1.32,0.75,2.38,0.76,2.4c0.07,0.11,0.22,0.14,0.31,0.06c0.1-0.07,0.12-0.22,0.04-0.33
						c-0.07-0.1-1.67-2.51,0.27-4.39c0.09-0.09,0.09-0.24,0-0.34c-0.09-0.1-0.23-0.11-0.32-0.02
						C194.97,136.94,194.73,137.88,194.76,138.72z"/>
				</g>
				<g>
					<path class="st4" d="M199.85,131.06c0.07,0.03,0.15,0.03,0.22-0.01c1.34-0.84,2.2,0.44,2.24,0.49
						c0.08,0.13,0.24,0.16,0.35,0.08c0.11-0.08,0.14-0.25,0.06-0.37c-0.4-0.62-1.52-1.55-2.92-0.67c-0.12,0.07-0.15,0.24-0.08,0.37
						C199.76,131,199.81,131.04,199.85,131.06z"/>
				</g>
				<g>
					<path class="st4" d="M199.23,134.52c-0.36,0.46-0.34,1.12,0.05,1.47c0.39,0.35,0.99,0.25,1.35-0.21
						c0.36-0.46,0.34-1.12-0.05-1.47C200.19,133.96,199.59,134.05,199.23,134.52z"/>
				</g>
			</g>
		</g>
		<path class="st5" d="M185.65,130.98c-2.55,2.3-4.98,2.58-7.3,1.26c-1.86,2.92-1.72,6.44,0.43,10.56l9.32-3.66L185.65,130.98z"/>
		<g>
			<path class="st4" d="M198.58,127.51c-0.33,0.69-1.16,1.22-1.72,1.73c-0.83,0.75-1.65,1.59-2.59,2.17c0.51-1.52-0.5-3.36-2.2-3.2
				c-1.87,0.17-2.05,2.69-0.96,4.01c-1.31,1.09-4.19,1.27-5.8,0.66c-2.51-0.96-2.38-3.75-1.77-5.97c0.64-2.31,1.35-4.82,3.06-6.46
				c1.66-1.6,3.76-2.44,5.94-3.12c2.16-0.67,4.69-0.61,6.94-0.19c1.06,0.19,2,0.2,2.95,0.81c0.88,0.56,1.69,1.38,2.37,2.2
				c1.5,1.84,2.68,4.25,3.32,6.56c0.53,1.91,0.4,4.09,0.69,6.04c0.13,0.9,0.69,2.42-0.63,2.23c-1.08-0.15-2.5-2.1-3.16-2.92
				C201.44,127.69,200.63,129.46,198.58,127.51"/>
		</g>
	</g>
	<path class="st0" d="M164.72,158.85l-2.93-1.71c-2.15,0.02-4.31,0.05-6.47,0.06c-0.63,0-1.25,0-1.87-0.01
		c-1.78-3.13-5.22-10.28-4.81-18.22c0.93-0.04,1.89-0.13,2.86-0.26c6.61-0.93,14.34-4.23,20.58-9.41l4,5.59
		c-0.51,1.64-1.2,3.95-1.48,5.32c-0.77,3.81,4.1,6.68,6.7,3.9c0.4-0.43,0.79-0.89,1.18-1.39l2.46,3.01l-6.55,8.72
		C175.12,158.77,169.74,161.78,164.72,158.85z"/>
	<path class="st5" d="M171.54,128.71c7.96,1.21,21.22,3.39,21.22,3.39c10.84,2.12,24.71,0.12,39.98-3.8
		c1.44-1.53,3.47-2.93,4.71-3.53c2.3-1.11,5.14-0.18,6.34,2.09c1.2,2.27,0.31,5.01-1.99,6.13c-1.76,0.85-6.27,1.18-8.84,0.28
		c-7.34,3.88-11.19,4.89-23.45,7.12c-10.94,1.99-25.57-0.23-36.43,3.5C169.69,140.22,168.58,135.45,171.54,128.71z"/>
	<path class="st0" d="M137.73,156.29c-1.01,0.04-2.02,0.03-3.02-0.01c-0.07-0.01-0.14,0-0.21-0.01c-4.75-7.27-6.84-14.73-1.29-21.15
		c0.36,0.37,0.74,0.7,1.16,0.99c0.12,0.1,0.25,0.18,0.37,0.27c0.14,0.1,0.29,0.19,0.44,0.28c0.25,0.15,0.52,0.28,0.79,0.41
		c0.1,0.05,0.2,0.1,0.31,0.15c0,0.01,0,0.01-0.01,0.01c-0.09,0.17-0.17,0.33-0.25,0.51c-0.07,0.16-0.15,0.32-0.21,0.48
		c-0.06,0.15-0.13,0.31-0.18,0.46c-0.01,0.02-0.01,0.04-0.02,0.05c-0.05,0.15-0.11,0.3-0.16,0.45c-1.59,4.73-0.81,10.43,1.92,16.35
		c0.02,0.04,0.03,0.07,0.04,0.1c0.09,0.2,0.19,0.4,0.28,0.59C137.71,156.24,137.72,156.26,137.73,156.29z"/>
	<path class="st0" d="M137.57,136.2c-5.31,6.13-5.77,13.07-3.16,20.49c-1.8-0.5-3.55-1.07-5.27-1.72c-0.06-0.02-0.11-0.04-0.17-0.06
		c-1.72-6.61-0.51-12.62,4.35-17.91h0.03c1.4-0.02,2.8-0.3,4.28-0.88C137.61,136.15,137.6,136.18,137.57,136.2z"/>
	<path class="st4" d="M111.43,156.65c-1.85-0.5-3.66-1.1-5.43-1.77c-0.01-0.02-0.01-0.04-0.02-0.06c0.06,0.02,0.11,0.04,0.17,0.06
		c1.72,0.65,3.47,1.23,5.27,1.72C111.42,156.62,111.42,156.63,111.43,156.65z"/>
	<g>
		<path class="st4" d="M190.96,117.85c0.63-1.31,1.55-2.34,1.72-3.9c0.23-2.07-0.09-4.81-0.91-6.76c-0.72-1.72-2.06-3.33-3.47-4.44
			c-1.57-1.24-3.61-0.97-5.36-0.64c-1.3,0.24-2.6,1.1-3.52,2.06c-0.92,0.95-1.29,2.3-2.4,3.04c-0.79,0.52-2.13,1.01-3.09,0.91
			c-1.18-0.12-2.3-0.93-3.51-1.12c-1.15-0.18-2.83-0.52-3.63,0.58c-0.42,0.58-0.62,1.5-0.32,2.21c0.37,0.85,1.09,0.76,1.67,1.29
			c-1.72,0.49-3.47-0.47-4.95,0.9c-0.95,0.87-2.08,2.24-1.64,3.77c0.3,1.05,1.46,0.97,2.31,0.88c-1.53,0.81-1.24,2.86-0.96,4.51
			c0.21,1.2,0.55,2.13,1.81,2.31c0.85,0.12,1.58-0.28,2.24-0.75c1.65,5.04,8.51,4.65,11.79,2.37c2.16-1.5,4.18-3.29,6.57-4.42
			c1.04-0.49,2.07-1,3.11-1.47c0.73-0.33,1.57-0.35,2.24-0.77"/>
	</g>
</g>
</svg>
