<?xml version="1.0" encoding="utf-8"?>
<!-- Generator: Adobe Illustrator 23.1.0, SVG Export Plug-In . SVG Version: 6.00 Build 0)  -->
<svg version="1.1" id="Слой_1" xmlns="http://www.w3.org/2000/svg" xmlns:xlink="http://www.w3.org/1999/xlink" x="0px" y="0px"
	 viewBox="0 0 250 250" style="enable-background:new 0 0 250 250;" xml:space="preserve">
<style type="text/css">
	.st0{fill:#4C3221;}
	.st1{fill:#FFA898;}
	.st2{fill:#223B77;}
	.st3{fill:#A44740;}
	.st4{fill:#F9E691;}
</style>
<g>
	<g>
		<path class="st0" d="M143.28,44.76c-6.02-1.82-17.61-2.73-21.97,1.79c-5.5,5.73,4.61,9.47,9.82,12.83
			c6.77,4.38-0.54,8.12-4.64,12.43c-1.9,2-3.43,4.82-2.14,6.98c1.41,2.37,4.82,1.87,7.78,2.72c1.78,0.52,2.38,1.61,1.61,2.79
			c-0.81,1.26-2.95,1.35-4.06,2.39c-2.18,2.01,0.45,4.14,3.35,4.95c5.3,1.47,18.54,0.83,20.11-3.6c0.82-2.33-2.44-3.16-2.82-5.15
			c-0.48-2.59,5.76-3.64,8.43-5.33c5.25-3.32,7.88-8.06,4.95-12.05c-1.39-1.9-4.16-3.01-5.82-4.74c-1.75-1.81-1.78-3.98-2.19-6.07
			c-0.65-3.28-3-9.18-9.07-10.04c-1.58-0.23-3.83-0.45-5.29,0.14"/>
	</g>
	<path class="st1" d="M145.27,24.48c-0.58-0.8-0.73-1.76-0.39-2.65l0.81-2.1c0.8-2.06,0.39-4.34-1.3-6.05
		c-0.74-0.76-1.55-1.26-2.23-1.57c-0.64-0.3-1.43,0.15-1.26,0.72l0.82,2.84c0.39,1.33,0.25,2.72-0.36,3.99l-2.82-3.53
		c-0.35-0.37-1.1-0.12-1,0.33l1.95,6.22l0.05,0.07c-0.7,1.62-0.61,3.38,0.31,4.96c6.76,7.82,13.12,16.28,17.35,26.77l-11.69,20.73
		l-3.1,8.24l6.65,8.9l16.29-29.07c3.19-5.67,3.98-10.91-0.39-16.09L145.27,24.48z"/>
	<path class="st1" d="M126.39,24.76c0.65-0.74,0.88-1.65,0.65-2.54l-0.56-2.07c-0.56-2.04,0.08-4.21,1.89-5.76
		c0.8-0.69,1.62-1.11,2.31-1.37c0.65-0.25,1.37,0.24,1.14,0.77l-1.09,2.69c-0.5,1.26-0.53,2.61-0.07,3.86l3.08-3.23
		c0.37-0.33,1.08-0.05,0.93,0.38l-2.54,5.88l-0.05,0.06c0.5,1.6,0.24,3.3-0.81,4.76c-7.33,7.13-15.45,14.34-20.62,24.2l9.76,22.5
		l2.58,6.91l-7.35,8.17l-12.7-29.05c-2.48-5.67-2.71-10.78,2.05-15.49L126.39,24.76z"/>
	<g>
		<path class="st0" d="M142.33,48.43c2.82,0.66,6.56,7.31,7.39,9.5c1.43,3.81-4.7,8.64-9.17,9.7c-4.9,1.16-10.27-3.46-12.91-6.36
			c-2.47-2.69-3.61-7.37-1.57-10.36c1.74-2.52,3.89-2.94,7.27-2.94c1.78,0,8.79-0.59,8.1,1.14"/>
	</g>
	<g>
		<g>
			<path class="st1" d="M144.94,62.7c-1.26,1.6-3.06,2.02-4.82,2.09c-0.48,0.02-0.94,0.01-1.39,0c-0.15,0.11-0.28,0.22-0.43,0.33
				v0.01c-0.62,0.46-1.32,0.92-2.03,1.33c-1.93,1.12-4.13,2.01-6.27,2.48c-2.39,0.53-4.73,0.54-6.56-0.24
				c-5.63-2.38-7.66-8.58-5.19-13.33c0.61-1.17,1.22-2.25,1.83-3.22c5.63-8.94,11.26-9.55,16.6-7.75c1.77,0.6,3.19,1.98,4.22,3.75
				c0.04,0.05,0.07,0.09,0.08,0.13c1.59,2.78,2.27,6.48,1.82,9.68c0.74-0.12,1.45-0.11,1.99,0.07c0.17,0.05,0.32,0.13,0.45,0.23
				C146.5,59.09,146.09,61.25,144.94,62.7z"/>
			<g>
				<g>
					<g>
						<path class="st2" d="M122.86,61.13c-0.03,0-0.05,0-0.09,0c-0.74-0.11-1.74-0.33-1.79-0.88c-0.08-0.76,1.93-1.43,2.79-1.68
							c0.19-0.05,0.39,0.02,0.45,0.16c0.07,0.14-0.03,0.3-0.21,0.35c-1.22,0.35-2.35,0.9-2.32,1.12c0,0,0.07,0.22,1.22,0.39
							c0.19,0.03,0.32,0.18,0.28,0.32C123.15,61.04,123.02,61.12,122.86,61.13z"/>
					</g>
				</g>
				<path class="st2" d="M132.08,58.43c-0.21,0.53-0.89,0.83-1.5,0.68c-0.62-0.15-0.94-0.7-0.73-1.23c0.21-0.53,0.89-0.83,1.5-0.68
					C131.97,57.35,132.29,57.91,132.08,58.43z"/>
				<path class="st2" d="M123.32,56.44c-0.21,0.53-0.89,0.83-1.5,0.68c-0.62-0.15-0.94-0.7-0.73-1.23c0.21-0.53,0.89-0.83,1.5-0.68
					C123.21,55.37,123.55,55.92,123.32,56.44z"/>
				<g>
					<g>
						<path class="st2" d="M134.84,56.66c-0.15-0.03-0.27-0.12-0.29-0.25c-0.44-1.95-2.7-1.75-2.8-1.74
							c-0.21,0.02-0.41-0.1-0.45-0.27c-0.03-0.16,0.13-0.33,0.35-0.35c1.08-0.1,3.23,0.24,3.68,2.26c0.04,0.16-0.11,0.33-0.33,0.36
							C134.96,56.67,134.89,56.67,134.84,56.66z"/>
					</g>
				</g>
				<g>
					<g>
						<path class="st2" d="M124.95,53.36c-0.12,0.04-0.25,0.03-0.36-0.03c-1.66-1.05-2.95,0.04-3.02,0.08
							c-0.12,0.1-0.33,0.11-0.48,0.02c-0.13-0.09-0.15-0.26-0.03-0.37c0.61-0.53,2.22-1.23,3.93-0.13c0.15,0.09,0.16,0.26,0.05,0.37
							C125.03,53.32,124.99,53.34,124.95,53.36z"/>
					</g>
				</g>
				<g>
					<g>
						<path class="st2" d="M124.6,63.09c0.08-0.07,0.23-0.1,0.35-0.08c2.05,0.47,2.71-0.91,2.74-0.97c0.07-0.13,0.25-0.21,0.43-0.15
							c0.17,0.05,0.27,0.2,0.2,0.33c-0.31,0.66-1.45,1.78-3.57,1.29c-0.17-0.04-0.28-0.19-0.23-0.33
							C124.55,63.15,124.57,63.12,124.6,63.09z"/>
					</g>
				</g>
			</g>
		</g>
		<g>
			<path class="st0" d="M145.23,58.26c-0.48,1.9-1.79,3.96-5.1,6.53c-0.6,0.47-1.26,0.96-2.02,1.46c-0.78,0.53-1.65,1.08-2.6,1.65
				c0.35-0.49,0.58-0.97,0.74-1.45c0.2-0.6,0.29-1.19,0.31-1.79c0.12-3.51-2.03-7.45,3.1-14.68c-1.66,1.42-4.32,2.24-6.85,2.26
				c-3.36,0.03-6.69-0.98-10.03-0.64c-0.93,0.09-1.83,0.3-2.71,0.56c-1.93,0.6-3.71,1.55-5.43,2.46c1.09-1.61,2.18-3.22,3.28-4.83
				c0.98-1.45,1.98-2.93,3.51-4.06c2.66-1.99,6.51-2.67,10.17-2.97c1.51-0.11,3.04-0.2,4.54,0.01c5.69,0.78,9.36,5.54,9.3,10.03
				C145.41,54.68,145.72,56.39,145.23,58.26z"/>
		</g>
	</g>
	<path class="st3" d="M116.05,96.46c-2.55-3.69-2.62-8.12-0.17-11.84l6.16-9.41h3.31c-1.34,4.09-3.06,12.51,4.9,13.66
		c5.75,0.13,9.21-4.91,11.37-12.88c0.07-0.26,0.15-0.52,0.2-0.78h3.68c0,0-2.71,10.93,4.33,15.02l-6.44,11.31
		c-1.93,3.38-1.79,7.24,0.36,10.53c-5.95,0.43-14.59,0.22-24.51-2.63c1.01-3.99,0.12-8.17-2.39-11.81L116.05,96.46z"/>
	<path class="st1" d="M149.86,161.59c-3.28,15.77-8.57,31.91-12.82,45.73v18.83c0,0-7.81-1.36-5.43-10.41c0,0-3.12-3.97,1.71-9.33
		c0,0-7.81-31.06,0.33-37.63c0,0,0.24-9.02,0.27-9.05C138.15,160.59,147.05,161.5,149.86,161.59z"/>
	<path class="st4" d="M152.92,138.16c0,0.74-0.01,1.48-0.07,2.24c-0.28,5.02-0.96,10.21-1.9,15.5v0.01
		c-7.48,1.62-13.99-0.67-17.31-2.24l-2.36-18.35l-17.95,4.59l-6.26,1.61c-6.65-4.29-15.01-6.19-20.12-7l4.85-2.79l16.43-9.45
		c3.75-2.16,6.83-4.96,8.91-8.18c6.42,2.28,18.25,5.4,29.79,2.83C150.86,123.58,152.92,130.82,152.92,138.16z"/>
	<path class="st3" d="M113.36,139.89l-6.26,1.61c-6.65-4.29-15.01-6.19-20.12-7l4.85-2.79C103.45,133.4,109.96,137.12,113.36,139.89
		z"/>
	<path class="st3" d="M150.97,155.91c-0.33,1.89-0.7,3.78-1.1,5.68c-2.8-0.08-11.73-0.57-15.95-1.41c0.09-0.13-0.25-6.5-0.25-6.5
		C136.97,155.24,143.49,157.53,150.97,155.91z"/>
	<path class="st1" d="M135.09,158.62c0,0.11-0.01,0.24-0.03,0.35c0,0.06-0.01,0.11-0.03,0.18c-0.01,0.09-0.03,0.18-0.05,0.27
		c-0.01,0.08-0.04,0.18-0.08,0.26c-0.03,0.07-0.05,0.14-0.08,0.22c-0.01,0.03-0.03,0.05-0.04,0.09c-0.07,0.14-0.15,0.29-0.24,0.42
		c-0.05,0.08-0.12,0.18-0.19,0.26c-0.54,0.71-0.84,1.53-0.84,2.37c0,0.25,0.03,0.49,0.08,0.74l0.58,2.88
		c0.17,0.87,0.08,1.76-0.29,2.59l-1.77,3.98c-0.61,1.37-2.96,1.14-3.2-0.3l-0.58-3.51l-1.49-8.86l-41.34-7.65
		c-2.24-0.41-4.4-1.1-6.34-2.13c-5.87-3.13-5.73-6.78-0.21-10.92l8.45-5.32c4.69,0.8,13.6,2.71,19.7,7l-12.34,3.09
		c8.2-1.12,18.92,2.52,32.09,10.83l0.62-0.23v-0.01l0.49-0.18c0.74-0.28,1.53-0.39,2.28-0.36c1.5,0.05,2.95,0.65,3.92,1.71
		C134.77,157.02,135.09,157.81,135.09,158.62z"/>
	<path class="st1" d="M146.96,116.91c-11.56,2.57-23.39-0.56-29.79-2.83c0.29-0.44,0.56-0.9,0.8-1.35c0.04-0.07,0.08-0.14,0.12-0.22
		c0.52-1,0.92-2.03,1.17-3.07c9.92,2.84,18.56,3.06,24.51,2.63c0.11,0.19,0.24,0.37,0.37,0.56
		C145.15,114.02,146.11,115.45,146.96,116.91z"/>
	<path class="st1" d="M141.83,75.2c-0.07,0.27-0.13,0.53-0.2,0.78C139.46,83.96,136,89,130.26,88.86c-7.96-1.15-6.23-9.57-4.9-13.66
		h2.7c0.45-0.41,0.88-1.1,1.24-2.22c0.31-0.98,0.56-2.3,0.7-4.04c2.14-0.47,4.34-1.37,6.27-2.48c-0.17,0.47-0.4,0.96-0.74,1.45
		c0.96-0.58,1.82-1.12,2.6-1.65c-0.25,1.94-0.33,4.6,0.6,6.73c0.36,0.86,0.89,1.63,1.63,2.22h1.47V75.2z"/>
</g>
</svg>
